<svg xmlns="http://www.w3.org/2000/svg" style="height: 0; width: 0; position: absolute; visibility: hidden;">

    <symbol id="expr:fill-none" viewBox="0 0 16 16">
        <path
            d="M14 0h-12c-1.105 0-2 0.895-2 2v0 12c0 1.105 0.895 2 2 2v0h12c1.105 0 2-0.895 2-2v0-12c0-1.105-0.895-2-2-2v0zM1 2c0.001-0.552 0.448-0.999 1-1h12c0.059 0.007 0.112 0.018 0.164 0.034l-0.007-0.002-13.125 13.125c-0.014-0.045-0.025-0.098-0.031-0.153l-0-0.004zM15 14c-0.001 0.552-0.448 0.999-1 1h-12c-0.061-0.007-0.116-0.018-0.169-0.035l0.007 0.002 13.129-13.129c0.014 0.046 0.026 0.101 0.032 0.158l0 0.004z" />
    </symbol>

    <symbol id="expr:fill-solid" viewBox="0 0 16 16">
        <path
            d="M1.75 0h12.5c0.966 0 1.75 0.783 1.75 1.75v12.5c0 0.966-0.784 1.75-1.75 1.75h-12.5c-0.967 0-1.75-0.784-1.75-1.75v-12.5c0-0.967 0.783-1.75 1.75-1.75z" />
    </symbol>

    <symbol id="expr:fill-pattern" viewBox="0 0 16 16">
        <path
            d="M14 0h-12c-1.105 0-2 0.895-2 2v0 12c0 1.105 0.895 2 2 2v0h12c1.105 0 2-0.895 2-2v0-12c0-1.105-0.895-2-2-2v0zM15 14c-0.001 0.552-0.448 0.999-1 1h-12c-0.552-0.001-0.999-0.448-1-1v-12c0.001-0.552 0.448-0.999 1-1h12c0.552 0.001 0.999 0.448 1 1v0z" />
        <path d="M1.146 3.431l2.28-2.28 2.28 2.28-2.28 2.28-2.28-2.28z" />
        <path d="M5.724 3.431l2.28-2.28 2.28 2.28-2.28 2.28-2.28-2.28z" />
        <path d="M10.295 3.431l2.28-2.28 2.28 2.28-2.28 2.28-2.28-2.28z" />
        <path d="M1.146 7.991l2.28-2.28 2.28 2.28-2.28 2.28-2.28-2.28z" />
        <path d="M5.724 7.991l2.28-2.28 2.28 2.28-2.28 2.28-2.28-2.28z" />
        <path d="M10.295 7.991l2.28-2.28 2.28 2.28-2.28 2.28-2.28-2.28z" />
        <path d="M1.146 12.569l2.28-2.28 2.28 2.28-2.28 2.28-2.28-2.28z" />
        <path d="M5.724 12.569l2.28-2.28 2.28 2.28-2.28 2.28-2.28-2.28z" />
        <path d="M10.295 12.569l2.28-2.28 2.28 2.28-2.28 2.28-2.28-2.28z" />
    </symbol>

    <symbol id="expr:menu-burger" viewBox="0 0 16 16">
        <path
            d="M0.267 1h15.466c0.147 0 0.267 0.12 0.267 0.267v1.466c0 0.147-0.12 0.267-0.267 0.267h-15.466c-0.147 0-0.267-0.12-0.267-0.267v-1.466c0-0.147 0.12-0.267 0.267-0.267z" />
        <path
            d="M0.267 13h15.466c0.147 0 0.267 0.12 0.267 0.267v1.466c0 0.147-0.12 0.267-0.267 0.267h-15.466c-0.147 0-0.267-0.12-0.267-0.267v-1.466c0-0.147 0.12-0.267 0.267-0.267z" />
        <path
            d="M0.267 7h15.466c0.147 0 0.267 0.12 0.267 0.267v1.466c0 0.147-0.12 0.267-0.267 0.267h-15.466c-0.147 0-0.267-0.12-0.267-0.267v-1.466c0-0.147 0.12-0.267 0.267-0.267z" />
    </symbol>

    <symbol id="expr:menu-dots" viewBox="0 0 16 16">
        <path d="M4 8c0 1.105-0.895 2-2 2s-2-0.895-2-2c0-1.105 0.895-2 2-2s2 0.895 2 2z" />
        <path d="M10 8c0 1.105-0.895 2-2 2s-2-0.895-2-2c0-1.105 0.895-2 2-2s2 0.895 2 2z" />
        <path d="M16 8c0 1.105-0.895 2-2 2s-2-0.895-2-2c0-1.105 0.895-2 2-2s2 0.895 2 2z" />
    </symbol>

    <symbol id="expr:swatch" viewBox="0 0 16 16">
        <path
            d="M7.25 0h-7c-0.138 0-0.25 0.112-0.25 0.25v0 7c0 0.138 0.112 0.25 0.25 0.25v0h7c0.138 0 0.25-0.112 0.25-0.25v0-7c0-0.138-0.112-0.25-0.25-0.25v0zM6.5 6.5h-5.5v-5.5h5.5z" />
        <path
            d="M8.75 0h7c0.138 0 0.25 0.112 0.25 0.25v7c0 0.138-0.112 0.25-0.25 0.25h-7c-0.138 0-0.25-0.112-0.25-0.25v-7c0-0.138 0.112-0.25 0.25-0.25z" />
        <path
            d="M15.75 8.5h-7c-0.138 0-0.25 0.112-0.25 0.25v0 7c0 0.138 0.112 0.25 0.25 0.25v0h7c0.138 0 0.25-0.112 0.25-0.25v0-7c0-0.138-0.112-0.25-0.25-0.25v0zM15 15h-5.5v-5.5h5.5z" />
        <path
            d="M0.25 8.5h7c0.138 0 0.25 0.112 0.25 0.25v7c0 0.138-0.112 0.25-0.25 0.25h-7c-0.138 0-0.25-0.112-0.25-0.25v-7c0-0.138 0.112-0.25 0.25-0.25z" />
    </symbol>

    <symbol id="expr:tweak" viewBox="0 0 16 16">
        <path
            d="M8 8c-0.003 0.179-0.021 0.351-0.053 0.519l0.003-0.019h8.050v-1h-8.050c0.029 0.149 0.047 0.321 0.050 0.497l0 0.003z" />
        <path
            d="M2 8c0.003-0.179 0.021-0.351 0.053-0.519l-0.003 0.019h-2.050v1h2.050c-0.029-0.149-0.047-0.321-0.050-0.497l-0-0.003z" />
        <path
            d="M11 2c0.003-0.179 0.021-0.351 0.053-0.519l-0.003 0.019h-11.050v1h11.050c-0.029-0.149-0.047-0.321-0.050-0.497l-0-0.003z" />
        <path
            d="M0 13.494v1h11.050c-0.029-0.147-0.047-0.317-0.050-0.491l-0-0.003c0.003-0.181 0.021-0.355 0.054-0.525l-0.003 0.019z" />
        <path
            d="M14 4c1.105 0 2-0.895 2-2s-0.895-2-2-2c-1.105 0-2 0.895-2 2v0c0 1.105 0.895 2 2 2v0zM14 1c0.552 0 1 0.448 1 1s-0.448 1-1 1c-0.552 0-1-0.448-1-1v0c0-0.552 0.448-1 1-1v0z" />
        <path
            d="M3 8c0 1.105 0.895 2 2 2s2-0.895 2-2c0-1.105-0.895-2-2-2v0c-1.105 0-2 0.895-2 2v0zM6 8c0 0.552-0.448 1-1 1s-1-0.448-1-1c0-0.552 0.448-1 1-1v0c0.552 0 1 0.448 1 1v0z" />
        <path
            d="M14 12c-1.105 0-2 0.895-2 2s0.895 2 2 2c1.105 0 2-0.895 2-2v0c0-1.105-0.895-2-2-2v0zM14 15c-0.552 0-1-0.448-1-1s0.448-1 1-1c0.552 0 1 0.448 1 1v0c0 0.552-0.448 1-1 1v0z" />
    </symbol>

    <symbol id="expr:player-start" viewBox="0 0 16 16">
        <path
            d="M1.25 1h2c0.138 0 0.25 0.112 0.25 0.25v13.5c0 0.138-0.112 0.25-0.25 0.25h-2c-0.138 0-0.25-0.112-0.25-0.25v-13.5c0-0.138 0.112-0.25 0.25-0.25z" />
        <path
            d="M14.954 1.123c-0.051-0.076-0.136-0.125-0.233-0.125-0.058 0-0.111 0.017-0.156 0.047l0.001-0.001-10.942 6.741c-0.075 0.044-0.124 0.124-0.124 0.215s0.049 0.171 0.123 0.214l0.001 0.001 10.942 6.741c0.043 0.029 0.097 0.047 0.155 0.047 0.148 0 0.269-0.115 0.279-0.26l0-0.001v-13.484c-0.004-0.051-0.020-0.097-0.047-0.136l0.001 0.001z" />
    </symbol>

    <symbol id="expr:player-end" viewBox="0 0 16 16">
        <path
            d="M12.75 1h2c0.138 0 0.25 0.112 0.25 0.25v13.5c0 0.138-0.112 0.25-0.25 0.25h-2c-0.138 0-0.25-0.112-0.25-0.25v-13.5c0-0.138 0.112-0.25 0.25-0.25z" />
        <path
            d="M12.376 7.785l-10.942-6.741c-0.044-0.029-0.097-0.047-0.155-0.047-0.148 0-0.269 0.115-0.279 0.26l-0 0.001v13.484c0.010 0.146 0.132 0.261 0.279 0.261 0.058 0 0.111-0.017 0.156-0.047l-0.001 0.001 10.942-6.741c0.075-0.044 0.124-0.124 0.124-0.215s-0.050-0.171-0.123-0.214l-0.001-0.001z" />
    </symbol>

    <symbol id="expr:player-prevkey" viewBox="0 0 16 16">
        <path
            d="M13.2 1h1.6c0.114 0.015 0.201 0.111 0.201 0.228 0 0.008-0 0.015-0.001 0.023l0-0.001v13.5c0.001 0.007 0.001 0.014 0.001 0.022 0 0.117-0.087 0.213-0.2 0.228l-0.001 0h-1.6c-0.114-0.015-0.201-0.111-0.201-0.228 0-0.008 0-0.015 0.001-0.023l-0 0.001v-13.5c-0.001-0.007-0.001-0.014-0.001-0.022 0-0.117 0.087-0.213 0.2-0.228l0.001-0z" />
        <path
            d="M1.107 7.785l9.515-6.741c0.038-0.026 0.085-0.042 0.136-0.042 0.134 0 0.242 0.108 0.242 0.242 0 0.005-0 0.010-0 0.014l0-0.001v13.484c0 0.004 0 0.009 0 0.013 0 0.134-0.108 0.242-0.242 0.242-0.051 0-0.097-0.015-0.136-0.042l0.001 0.001-9.515-6.741c-0.066-0.049-0.108-0.127-0.108-0.215s0.042-0.166 0.107-0.215l0.001-0z" />
    </symbol>

    <symbol id="expr:player-nextkey" viewBox="0 0 16 16">
        <path
            d="M2.8 1h-1.6c-0.114 0.015-0.201 0.111-0.201 0.228 0 0.008 0 0.015 0.001 0.023l-0-0.001v13.5c-0.001 0.007-0.001 0.014-0.001 0.022 0 0.117 0.087 0.213 0.2 0.228l0.001 0h1.6c0.114-0.015 0.201-0.111 0.201-0.228 0-0.008-0-0.015-0.001-0.023l0 0.001v-13.5c0.001-0.007 0.001-0.014 0.001-0.022 0-0.117-0.087-0.213-0.2-0.228l-0.001-0z" />
        <path
            d="M14.893 7.785l-9.515-6.741c-0.038-0.026-0.085-0.041-0.135-0.041-0.134 0-0.242 0.108-0.242 0.242 0 0.005 0 0.009 0 0.014l-0-0.001v13.484c-0 0.004-0 0.009-0 0.013 0 0.134 0.108 0.242 0.242 0.242 0.051 0 0.097-0.015 0.136-0.042l-0.001 0.001 9.515-6.741c0.066-0.049 0.108-0.127 0.108-0.215s-0.042-0.166-0.107-0.215l-0.001-0z" />
    </symbol>

    <symbol id="expr:player-reverseplay" viewBox="0 0 16 16">
        <path
            d="M13.316 1.044c0.043-0.029 0.097-0.047 0.155-0.047 0.148 0 0.269 0.115 0.279 0.26l0 0.001v13.484c-0.010 0.146-0.132 0.261-0.279 0.261-0.058 0-0.111-0.017-0.156-0.047l0.001 0.001-10.942-6.741c-0.075-0.044-0.124-0.124-0.124-0.215s0.050-0.171 0.123-0.214l0.001-0.001z" />
    </symbol>

    <symbol id="expr:player-play" viewBox="0 0 16 16">
        <path
            d="M2.684 1.044c-0.043-0.029-0.097-0.047-0.155-0.047-0.148 0-0.269 0.115-0.279 0.26l-0 0.001v13.484c0.010 0.146 0.132 0.261 0.279 0.261 0.058 0 0.111-0.017 0.156-0.047l-0.001 0.001 10.942-6.741c0.075-0.044 0.124-0.124 0.124-0.215s-0.050-0.171-0.123-0.214l-0.001-0.001z" />
    </symbol>

    <symbol id="expr:player-record" viewBox="0 0 16 16">
        <path d="M15 8c0 3.866-3.134 7-7 7s-7-3.134-7-7c0-3.866 3.134-7 7-7s7 3.134 7 7z" />
    </symbol>

    <symbol id="expr:player-stop" viewBox="0 0 16 16">
        <path
            d="M6.4 1h-4.8c-0.331 0-0.6 0.112-0.6 0.25v13.5c0 0.138 0.269 0.25 0.6 0.25h4.8c0.331 0 0.6-0.112 0.6-0.25v-13.5c0-0.138-0.269-0.25-0.6-0.25z" />
        <path
            d="M14.4 1h-4.8c-0.331 0-0.6 0.112-0.6 0.25v13.5c0 0.138 0.269 0.25 0.6 0.25h4.8c0.331 0 0.6-0.112 0.6-0.25v-13.5c0-0.138-0.269-0.25-0.6-0.25z" />
    </symbol>

    <symbol id="expr:path" viewBox="0 0 16 16">
        <path d="M13,11a1.994,1.994,0,0,0-1.925,1.488c-1.586-.047-2.6-.354-3-.923-.528-.749-.056-2.1.4-3.4.54-1.543,1.1-3.139.266-4.312-.611-.86-1.832-1.287-3.8-1.342a2,2,0,1,0-.007,1c1.582.046,2.594.354,3,.925.533.748.061,2.1-.4,3.4-.54,1.543-1.1,3.139-.266,4.311.611.861,1.833,1.288,3.805,1.343A2,2,0,1,0,13,11ZM3,4A1,1,0,1,1,4,3,1,1,0,0,1,3,4ZM13,14a1,1,0,1,1,1-1A1,1,0,0,1,13,14Z" />
    </symbol>

    <symbol id="expr:text-uppercase" viewBox="0 0 16 16">
        <path d="M4.325 12.64h-1.64v-7.979h-2.673v-1.3h6.976v1.3h-2.663z" />
        <path d="M13.325 12.64h-1.64v-7.979h-2.673v-1.3h6.976v1.3h-2.663z" />
    </symbol>

    <symbol id="expr:text-lowercase" viewBox="0 0 16 16">
        <path
            d="M5.866 11.303c0.409-0.001 0.803-0.067 1.172-0.188l-0.027 0.008v1.179c-0.192 0.081-0.417 0.147-0.65 0.187l-0.019 0.003c-0.252 0.049-0.543 0.077-0.839 0.077-0.003 0-0.007 0-0.010-0h0.001q-2.224 0-2.224-2.344v-3.97h-1.005v-0.693l1.079-0.573 0.533-1.558h0.966v1.643h2.1v1.185h-2.1v3.942c-0.003 0.028-0.004 0.060-0.004 0.093 0 0.286 0.109 0.548 0.288 0.744l-0.001-0.001c0.182 0.166 0.426 0.267 0.693 0.267 0.017 0 0.034-0 0.050-0.001l-0.002 0zM12.591 11.303c0.409-0.001 0.803-0.067 1.172-0.188l-0.027 0.008v1.179c-0.192 0.081-0.417 0.147-0.65 0.187l-0.019 0.003c-0.252 0.049-0.543 0.077-0.839 0.077-0.003 0-0.007 0-0.010-0h0.001q-2.224 0-2.224-2.344v-3.97h-1.006v-0.693l1.079-0.573 0.533-1.557h0.966v1.642h2.1v1.185h-2.1v3.942c-0.002 0.028-0.004 0.060-0.004 0.093 0 0.286 0.109 0.548 0.288 0.744l-0.001-0.001c0.182 0.166 0.426 0.267 0.693 0.267 0.017 0 0.034-0 0.051-0.001l-0.002 0z" />
    </symbol>

    <symbol id="expr:text-capitalize" viewBox="0 0 16 16">
        <path
            d="M5.656 12.515h-1.5v-7.871h-2.69v-1.284h6.882v1.284h-2.692zM13.457 11.454c0.385-0.001 0.755-0.063 1.102-0.176l-0.025 0.007v1.105c-0.181 0.076-0.392 0.138-0.611 0.175l-0.018 0.003c-0.237 0.046-0.509 0.072-0.787 0.072-0.005 0-0.009 0-0.014-0h0.001q-2.092 0-2.092-2.2v-3.736h-0.944v-0.65l0.946-0.463 0.57-1.54h0.908v1.54h1.972v1.113h-1.973v3.707c-0.002 0.026-0.004 0.057-0.004 0.087 0 0.269 0.102 0.515 0.27 0.7l-0.001-0.001c0.172 0.16 0.404 0.258 0.659 0.258 0.014 0 0.028-0 0.042-0.001l-0.002 0z" />
    </symbol>

    <symbol id="expr:text-subscript" viewBox="0 0 16 16">
        <path d="M6.949 11.769h-1.634v-8.593h-2.94v-1.4h7.515v1.4h-2.941z" />
        <path
            d="M13.617 14.224h-1.191v-2.551c0.002-0.025 0.003-0.055 0.003-0.085 0-0.23-0.064-0.446-0.174-0.63l0.003 0.006c-0.113-0.148-0.289-0.242-0.487-0.242-0.017 0-0.034 0.001-0.050 0.002l0.002-0c-0.021-0.002-0.046-0.003-0.071-0.003-0.268 0-0.506 0.132-0.651 0.335l-0.002 0.002c-0.144 0.275-0.229 0.601-0.229 0.946 0 0.058 0.002 0.116 0.007 0.173l-0.001-0.007v2.055h-1.188v-4.367h0.91l0.16 0.559h0.066c0.133-0.209 0.32-0.374 0.541-0.476l0.008-0.003c0.224-0.103 0.486-0.162 0.761-0.162 0.012 0 0.024 0 0.035 0l-0.002-0c0.033-0.002 0.070-0.004 0.109-0.004 0.406 0 0.775 0.158 1.048 0.417l-0.001-0.001c0.248 0.288 0.399 0.665 0.399 1.077 0 0.039-0.001 0.078-0.004 0.117l0-0.005z" />
    </symbol>

    <symbol id="expr:text-superscript" viewBox="0 0 16 16">
        <path
            d="M15.117 6.226h-1.191v-2.551c0.002-0.025 0.003-0.055 0.003-0.085 0-0.23-0.064-0.446-0.174-0.63l0.003 0.006c-0.113-0.148-0.289-0.242-0.487-0.242-0.017 0-0.034 0.001-0.050 0.002l0.002-0c-0.021-0.002-0.046-0.003-0.071-0.003-0.268 0-0.506 0.132-0.651 0.335l-0.002 0.002c-0.144 0.275-0.229 0.601-0.229 0.946 0 0.058 0.002 0.116 0.007 0.173l-0.001-0.007v2.055h-1.188v-4.367h0.91l0.16 0.559h0.066c0.133-0.209 0.32-0.374 0.541-0.476l0.008-0.003c0.224-0.103 0.486-0.162 0.762-0.162 0.012 0 0.023 0 0.035 0l-0.002-0c0.032-0.002 0.070-0.004 0.108-0.004 0.406 0 0.775 0.158 1.048 0.417l-0.001-0.001c0.248 0.288 0.399 0.665 0.399 1.077 0 0.039-0.001 0.078-0.004 0.117l0-0.005z" />
        <path d="M5.449 14.226h-1.634v-8.593h-2.94v-1.4h7.515v1.4h-2.941z" />
    </symbol>

    <symbol id="expr:text-bold" viewBox="0 0 16 16">
        <path
            d="M3.921 2.505h3.423c0.142-0.011 0.308-0.017 0.476-0.017 1.065 0 2.071 0.252 2.962 0.7l-0.038-0.017c0.642 0.419 1.060 1.134 1.060 1.947 0 0.060-0.002 0.12-0.007 0.179l0-0.008c0.002 0.033 0.002 0.073 0.002 0.112 0 0.563-0.174 1.085-0.471 1.515l0.006-0.009c-0.286 0.401-0.719 0.68-1.22 0.759l-0.010 0.001v0.075c0.612 0.099 1.137 0.416 1.503 0.867l0.004 0.004c0.292 0.439 0.466 0.979 0.466 1.559 0 0.049-0.001 0.099-0.004 0.148l0-0.007c0.002 0.040 0.003 0.086 0.003 0.132 0 0.899-0.424 1.7-1.083 2.212l-0.006 0.005c-0.751 0.532-1.687 0.85-2.696 0.85-0.090 0-0.18-0.003-0.269-0.008l0.012 0.001h-4.115zM6.253 6.861h1.359c0.057 0.005 0.124 0.007 0.191 0.007 0.433 0 0.841-0.111 1.195-0.307l-0.013 0.006c0.262-0.203 0.429-0.518 0.429-0.872 0-0.035-0.002-0.069-0.005-0.103l0 0.004c0.002-0.023 0.003-0.050 0.003-0.078 0-0.35-0.185-0.656-0.462-0.827l-0.004-0.002c-0.371-0.179-0.807-0.284-1.268-0.284-0.071 0-0.14 0.002-0.21 0.007l0.009-0.001h-1.226zM6.253 8.712v2.867h1.52c0.054 0.005 0.116 0.007 0.18 0.007 0.463 0 0.893-0.139 1.251-0.378l-0.008 0.005c0.285-0.251 0.463-0.616 0.463-1.023 0-0.037-0.002-0.074-0.004-0.111l0 0.005q0-1.371-1.956-1.371z" />
    </symbol>

    <symbol id="expr:text-italic" viewBox="0 0 16 16">
        <path d="M6 13.354l2.278-10.708h1.722l-2.279 10.708z" />
    </symbol>

    <symbol id="expr:text-underline" viewBox="0 0 16 16">
        <path
            d="M11.959 1.5v6.464c0.001 0.026 0.001 0.057 0.001 0.087 0 0.679-0.176 1.316-0.486 1.869l0.010-0.019c-0.323 0.556-0.792 0.995-1.356 1.271l-0.019 0.008c-0.593 0.283-1.288 0.449-2.022 0.449-0.045 0-0.090-0.001-0.135-0.002l0.007 0c-0.074 0.005-0.16 0.008-0.248 0.008-1.015 0-1.942-0.376-2.65-0.996l0.005 0.004c-0.642-0.644-1.038-1.532-1.038-2.513 0-0.068 0.002-0.135 0.006-0.202l-0 0.009v-6.437h1.642v6.321c-0.006 0.063-0.009 0.137-0.009 0.211 0 0.615 0.22 1.179 0.586 1.617l-0.003-0.004c0.416 0.37 0.967 0.596 1.571 0.596 0.069 0 0.136-0.003 0.204-0.009l-0.009 0.001q2.311 0 2.311-2.426v-6.307z" />
        <path d="M1 13.5h14v1h-14v-1z" />
    </symbol>

    <symbol id="expr:text-strikethrough" viewBox="0 0 16 16">
        <path
            d="M7.833 6.995c-0.283-0.126-0.519-0.252-0.745-0.391l0.027 0.015c-0.235-0.143-0.429-0.332-0.575-0.554l-0.004-0.007c-0.111-0.194-0.177-0.427-0.177-0.675 0-0.014 0-0.028 0.001-0.042l-0 0.002c-0-0.012-0.001-0.027-0.001-0.042 0-0.376 0.171-0.711 0.439-0.934l0.002-0.002c0.319-0.235 0.719-0.377 1.153-0.377 0.048 0 0.095 0.002 0.143 0.005l-0.006-0c0.93 0.033 1.802 0.251 2.59 0.617l-0.041-0.017 0.556-1.428c-0.899-0.418-1.95-0.665-3.059-0.672l-0.002-0c-0.062-0.003-0.135-0.006-0.208-0.006-0.884 0-1.7 0.291-2.358 0.782l0.010-0.007c-0.584 0.474-0.955 1.192-0.955 1.996 0 0.040 0.001 0.079 0.003 0.119l-0-0.006c-0 0.015-0 0.032-0 0.049 0 0.584 0.173 1.128 0.47 1.584l-0.007-0.011z" />
        <path
            d="M15 7.995h-14v1h7.289c0.337 0.18 0.624 0.363 0.895 0.566l-0.018-0.013c0.278 0.245 0.453 0.603 0.453 1.001 0 0.006-0 0.012-0 0.018l0-0.001c0.001 0.014 0.001 0.031 0.001 0.048 0 0.411-0.192 0.776-0.492 1.012l-0.003 0.002c-0.379 0.255-0.846 0.407-1.348 0.407-0.065 0-0.13-0.003-0.194-0.008l0.008 0.001c-0.548-0.007-1.075-0.079-1.58-0.21l0.046 0.010c-0.596-0.144-1.114-0.33-1.606-0.564l0.049 0.021v1.654c0.801 0.359 1.735 0.569 2.719 0.569 0.090 0 0.179-0.002 0.268-0.005l-0.013 0c0.078 0.005 0.169 0.008 0.261 0.008 0.969 0 1.867-0.307 2.601-0.829l-0.014 0.009c0.633-0.497 1.036-1.263 1.036-2.123 0-0.042-0.001-0.084-0.003-0.125l0 0.006c0.001-0.021 0.001-0.045 0.001-0.069 0-0.431-0.094-0.841-0.263-1.209l0.007 0.018c-0.035-0.070-0.087-0.128-0.128-0.194h4.028z" />
    </symbol>

    <symbol id="expr:character-spacing" viewBox="0 0 16 16">
        <path d="M14.5 11.225l-1.5-1v1.5h-10v-1.5l-3 2 3 2v-1.5h10v1.5l3-2-1.5-1z" />
        <path
            d="M5.349 8.226l2.25-6.425h-1.090l-1.341 3.974c-0.049 0.141-0.114 0.358-0.193 0.651s-0.138 0.551-0.176 0.773q-0.034-0.219-0.153-0.67c-0.080-0.3-0.154-0.546-0.225-0.736l-1.34-4h-1.081l2.241 6.425z" />
        <path
            d="M9.335 6.441h2.456l0.642 1.784h1.116l-2.4-6.451h-1.149l-2.4 6.451h1.106zM10.222 3.861c0.12-0.316 0.24-0.711 0.334-1.116l0.013-0.066q0.045 0.175 0.16 0.554c0.079 0.252 0.139 0.437 0.183 0.554l0.6 1.749h-1.87z" />
    </symbol>

    <symbol id="expr:line-spacing" viewBox="0 0 16 16">
        <path
            d="M6.093 3.513h8.814c0.328 0 0.593 0.265 0.593 0.593v0.314c0 0.327-0.265 0.593-0.593 0.593h-8.814c-0.327 0-0.593-0.266-0.593-0.593v-0.314c0-0.328 0.266-0.593 0.593-0.593z" />
        <path
            d="M6.088 7.513h8.824c0.325 0 0.588 0.263 0.588 0.588v0.311c0 0.325-0.263 0.588-0.588 0.588h-8.824c-0.325 0-0.588-0.263-0.588-0.588v-0.311c0-0.325 0.263-0.588 0.588-0.588z" />
        <path
            d="M6.088 11.513h8.824c0.325 0 0.588 0.263 0.588 0.588v0.311c0 0.325-0.263 0.588-0.588 0.588h-8.824c-0.325 0-0.588-0.263-0.588-0.588v-0.311c0-0.325 0.263-0.588 0.588-0.588z" />
        <path d="M4.5 4l-2-3-2 3h1.5v8h-1.5l2 3 2-3h-1.5v-8h1.5z" />
    </symbol>

    <symbol id="expr:text-left" viewBox="0 0 16 16">
        <path
            d="M0.75 1.25h8.5c0.414 0 0.75 0.336 0.75 0.75v0 0c0 0.414-0.336 0.75-0.75 0.75v0h-8.5c-0.414 0-0.75-0.336-0.75-0.75v0 0c0-0.414 0.336-0.75 0.75-0.75v0z" />
        <path
            d="M0.744 5.25h14.512c0 0 0 0 0 0 0.411 0 0.744 0.333 0.744 0.743v0c-0 0.411-0.333 0.744-0.744 0.744-0 0-0 0-0 0h-14.512c-0 0-0 0-0 0-0.411 0-0.744-0.333-0.744-0.743v-0c0-0.411 0.333-0.744 0.744-0.744 0 0 0 0 0 0h-0z" />
        <path
            d="M0.744 9.25h8.512c0 0 0 0 0 0 0.411 0 0.744 0.333 0.744 0.743v0c-0 0.411-0.333 0.743-0.744 0.743-0 0-0 0-0 0h-8.512c-0 0-0 0-0 0-0.411 0-0.744-0.333-0.744-0.743v-0c0-0.411 0.333-0.743 0.744-0.743 0 0 0 0 0 0h-0z" />
        <path
            d="M0.75 13.25h14.5c0.414 0 0.75 0.336 0.75 0.75v0 0c0 0.414-0.336 0.75-0.75 0.75v0h-14.5c-0.414 0-0.75-0.336-0.75-0.75v0 0c0-0.414 0.336-0.75 0.75-0.75v0z" />
    </symbol>

    <symbol id="expr:text-center" viewBox="0 0 16 16">
        <path
            d="M3.75 1.25h8.5c0.414 0 0.75 0.336 0.75 0.75v0 0c0 0.414-0.336 0.75-0.75 0.75v0h-8.5c-0.414 0-0.75-0.336-0.75-0.75v0 0c0-0.414 0.336-0.75 0.75-0.75v0z" />
        <path
            d="M0.744 5.25h14.512c0 0 0 0 0 0 0.411 0 0.744 0.333 0.744 0.743v0c-0 0.411-0.333 0.744-0.744 0.744-0 0-0 0-0 0h-14.512c-0 0-0 0-0 0-0.411 0-0.744-0.333-0.744-0.743v-0c0-0.411 0.333-0.744 0.744-0.744 0 0 0 0 0 0h-0z" />
        <path
            d="M3.744 9.25h8.512c0 0 0 0 0 0 0.411 0 0.744 0.333 0.744 0.743v0c-0 0.411-0.333 0.743-0.744 0.743-0 0-0 0-0 0h-8.512c-0 0-0 0-0 0-0.411 0-0.744-0.333-0.744-0.743v-0c0-0.411 0.333-0.743 0.744-0.743 0 0 0 0 0 0h-0z" />
        <path
            d="M0.75 13.25h14.5c0.414 0 0.75 0.336 0.75 0.75v0 0c0 0.414-0.336 0.75-0.75 0.75v0h-14.5c-0.414 0-0.75-0.336-0.75-0.75v0 0c0-0.414 0.336-0.75 0.75-0.75v0z" />
    </symbol>

    <symbol id="expr:text-right" viewBox="0 0 16 16">
        <path
            d="M6.75 2.75h8.5c0.414 0 0.75-0.336 0.75-0.75s-0.336-0.75-0.75-0.75v0h-8.5c-0.414 0-0.75 0.336-0.75 0.75s0.336 0.75 0.75 0.75v0z" />
        <path
            d="M15.256 5.25h-14.512c-0.411 0-0.744 0.333-0.744 0.744s0.333 0.744 0.744 0.744v0h14.512c0.411 0 0.744-0.333 0.744-0.744s-0.333-0.744-0.744-0.744v0z" />
        <path
            d="M15.256 9.25h-8.512c-0.411 0-0.744 0.333-0.744 0.744s0.333 0.744 0.744 0.744v0h8.512c0.411 0 0.744-0.333 0.744-0.744s-0.333-0.744-0.744-0.744v0z" />
        <path
            d="M15.25 13.25h-14.5c-0.414 0-0.75 0.336-0.75 0.75s0.336 0.75 0.75 0.75v0h14.5c0.414 0 0.75-0.336 0.75-0.75s-0.336-0.75-0.75-0.75v0z" />
    </symbol>

    <symbol id="expr:text-justify" viewBox="0 0 16 16">
        <path
            d="M0.75 1.25h14.5c0.414 0 0.75 0.336 0.75 0.75v0 0c0 0.414-0.336 0.75-0.75 0.75v0h-14.5c-0.414 0-0.75-0.336-0.75-0.75v0 0c0-0.414 0.336-0.75 0.75-0.75v0z" />
        <path
            d="M0.744 5.25h14.512c0 0 0 0 0 0 0.411 0 0.744 0.333 0.744 0.743v0c-0 0.411-0.333 0.744-0.744 0.744-0 0-0 0-0 0h-14.512c-0 0-0 0-0 0-0.411 0-0.744-0.333-0.744-0.743v-0c0-0.411 0.333-0.744 0.744-0.744 0 0 0 0 0 0h-0z" />
        <path
            d="M0.744 9.25h14.512c0 0 0 0 0 0 0.411 0 0.744 0.333 0.744 0.743v0c-0 0.411-0.333 0.743-0.744 0.743-0 0-0 0-0 0h-14.512c-0 0-0 0-0 0-0.411 0-0.744-0.333-0.744-0.743v-0c0-0.411 0.333-0.743 0.744-0.743 0 0 0 0 0 0h-0z" />
        <path
            d="M0.75 13.25h14.5c0.414 0 0.75 0.336 0.75 0.75v0 0c0 0.414-0.336 0.75-0.75 0.75v0h-14.5c-0.414 0-0.75-0.336-0.75-0.75v0 0c0-0.414 0.336-0.75 0.75-0.75v0z" />
    </symbol>

    <symbol id="expr:radius-same" viewBox="0 0 16 16">
        <path
            d="M10 0h-4c-3.314 0-6 2.686-6 6v0 4c0 3.314 2.686 6 6 6v0h4c3.314 0 6-2.686 6-6v0-4c0-3.314-2.686-6-6-6v0zM15 10c0 2.761-2.239 5-5 5v0h-4c-2.761 0-5-2.239-5-5v0-4c0-2.761 2.239-5 5-5v0h4c2.761 0 5 2.239 5 5v0z" />
    </symbol>

    <symbol id="expr:radius-separate" viewBox="0 0 16 16">
        <path d="M0 6h1c0-2.761 2.239-5 5-5v0-1c-3.314 0-6 2.686-6 6v0z" />
        <path d="M15 6h1c0-3.314-2.686-6-6-6v0 1c2.761 0 5 2.239 5 5v0z" />
        <path d="M1 10h-1c0 3.314 2.686 6 6 6v0-1c-2.761 0-5-2.239-5-5v0z" />
        <path d="M10 15v1c3.314 0 6-2.686 6-6v0h-1c0 2.761-2.239 5-5 5v0z" />
    </symbol>

    <symbol id="expr:maintain-checked" viewBox="0 0 16 16">
        <path d="M2 8c0 1.657 1.343 3 3 3v0h6c1.657 0 3-1.343 3-3s-1.343-3-3-3v0h-6c-1.657 0-3 1.343-3 3v0z" />
        <path
            d="M1 8c0-2.209 1.791-4 4-4v0h1v-1h-1c-2.761 0-5 2.239-5 5s2.239 5 5 5v0h1v-1h-1c-2.209 0-4-1.791-4-4v0z" />
        <path
            d="M11 3h-1v1h1c0 0 0.001 0 0.001 0 2.209 0 4 1.791 4 4s-1.79 3.999-3.999 4h-1.002v1h1c2.761 0 5-2.239 5-5s-2.239-5-5-5v0z" />
    </symbol>

    <symbol id="expr:maintain-unchecked" viewBox="0 0 16 16">
        <path
            d="M1 8c0-2.209 1.791-4 4-4v0h1v-1h-1c-2.761 0-5 2.239-5 5s2.239 5 5 5v0h1v-1h-1c-2.209 0-4-1.791-4-4v0z" />
        <path
            d="M11 3h-1v1h1c0 0 0.001 0 0.001 0 2.209 0 4 1.791 4 4s-1.79 3.999-3.999 4h-1.002v1h1c2.761 0 5-2.239 5-5s-2.239-5-5-5v0z" />
    </symbol>

    <symbol id="expr:rotate" viewBox="0 0 16 16">
        <path
            d="M8.002 15c-0.009 0-0.020 0-0.030 0-3.866 0-7-3.134-7-7s3.134-7 7-7c2.596 0 4.862 1.413 6.071 3.513l0.018 0.034-1.883-0.269-0.141 0.99 3.466 0.495 0.494-3.465-0.99-0.142-0.231 1.618c-1.435-2.263-3.928-3.744-6.765-3.744-4.41 0-7.985 3.575-7.985 7.985s3.575 7.985 7.985 7.985c3.799 0 6.979-2.653 7.786-6.208l0.010-0.053h-1.032c-0.802 3.045-3.528 5.255-6.772 5.261h-0.001z" />
        <path d="M9.002 8c0 0.552-0.448 1-1 1s-1-0.448-1-1c0-0.552 0.448-1 1-1s1 0.448 1 1z" />
    </symbol>

    <symbol id="expr:add-color" viewBox="0 0 16 16">
        <path d="M8.318 11.203v-2.5h2.414v-0.809h-2.414l-0.003-2.508h-0.814v2.508h-2.4v0.809h2.403v2.5h0.814z" />
        <path d="M0 10h1v2h-1v-2z" />
        <path d="M0 7h1v2h-1v-2z" />
        <path d="M0 4h1v2h-1v-2z" />
        <path d="M10 0h2v1h-2v-1z" />
        <path d="M7 0h2v1h-2v-1z" />
        <path d="M4 0h2v1h-2v-1z" />
        <path d="M10 15h2v1h-2v-1z" />
        <path d="M7 15h2v1h-2v-1z" />
        <path d="M4 15h2v1h-2v-1z" />
        <path d="M1 0h-1v3h1v-2h2v-1h-2z" />
        <path d="M1 15v-2h-1v3h3v-1h-2z" />
        <path d="M15 0h-2v1h2v2h1v-3h-1z" />
        <path d="M15 10h1v2h-1v-2z" />
        <path d="M15 7h1v2h-1v-2z" />
        <path d="M15 4h1v2h-1v-2z" />
        <path d="M15 14v1h-2v1h3v-3h-1v1z" />
    </symbol>

    <symbol id="expr:align-to-selection" viewBox="0 0 16 16">
        <path
            d="M13 16v-1h-3.5v1h-3v-1h-3.5v1h-3v-3h0.974v-3.5h-0.974v-3h0.974v-3.5h-0.974v-3h3v1h3.5v-1h3v1h3.5v-1h3v3h-0.974v3.5h0.974v3h-0.974v3.5h0.974v3zM9.5 13v1h3.5v-1h1v-3.5h-1v-3h1v-3.5h-1v-1h-3.5v1h-3v-1h-3.5v1h-1v3.5h1v3h-1v3.5h1v1h3.5v-1zM7 8c0-0.552 0.448-1 1-1s1 0.448 1 1c0 0.552-0.448 1-1 1v0c-0.552 0-1-0.448-1-1v0z" />
    </symbol>

    <symbol id="expr:artboard-tool" viewBox="0 0 16 16">
        <path
            d="M16 4v-1h-1.5v-1.5h-1v1.5h-11v-1.5h-1v1.5h-1.5v1h1.5v8h-1.5v1h1.5v1.5h1v-1.5h11v1.5h1v-1.5h1.5v-1h-1.5v-8zM13.5 12h-11v-8h11z" />
    </symbol>

    <symbol id="expr:assets" viewBox="0 0 16 16">
        <path
            d="M1.133 1h3.734c0.073 0 0.133 0.060 0.133 0.133v3.734c0 0.073-0.060 0.133-0.133 0.133h-3.734c-0.073 0-0.133-0.060-0.133-0.133v-3.734c0-0.073 0.060-0.133 0.133-0.133z" />
        <path
            d="M6.133 1h3.734c0.073 0 0.133 0.060 0.133 0.133v3.734c0 0.073-0.060 0.133-0.133 0.133h-3.734c-0.073 0-0.133-0.060-0.133-0.133v-3.734c0-0.073 0.060-0.133 0.133-0.133z" />
        <path
            d="M11.133 1h3.734c0.073 0 0.133 0.060 0.133 0.133v3.734c0 0.073-0.060 0.133-0.133 0.133h-3.734c-0.073 0-0.133-0.060-0.133-0.133v-3.734c0-0.073 0.060-0.133 0.133-0.133z" />
        <path
            d="M1.133 6h3.734c0.073 0 0.133 0.060 0.133 0.133v3.734c0 0.073-0.060 0.133-0.133 0.133h-3.734c-0.073 0-0.133-0.060-0.133-0.133v-3.734c0-0.073 0.060-0.133 0.133-0.133z" />
        <path
            d="M6.133 6h3.734c0.073 0 0.133 0.060 0.133 0.133v3.734c0 0.073-0.060 0.133-0.133 0.133h-3.734c-0.073 0-0.133-0.060-0.133-0.133v-3.734c0-0.073 0.060-0.133 0.133-0.133z" />
        <path
            d="M11.133 6h3.734c0.073 0 0.133 0.060 0.133 0.133v3.734c0 0.073-0.060 0.133-0.133 0.133h-3.734c-0.073 0-0.133-0.060-0.133-0.133v-3.734c0-0.073 0.060-0.133 0.133-0.133z" />
        <path
            d="M1.133 11h3.734c0.073 0 0.133 0.060 0.133 0.133v3.734c0 0.073-0.060 0.133-0.133 0.133h-3.734c-0.073 0-0.133-0.060-0.133-0.133v-3.734c0-0.073 0.060-0.133 0.133-0.133z" />
        <path
            d="M6.133 11h3.734c0.073 0 0.133 0.060 0.133 0.133v3.734c0 0.073-0.060 0.133-0.133 0.133h-3.734c-0.073 0-0.133-0.060-0.133-0.133v-3.734c0-0.073 0.060-0.133 0.133-0.133z" />
        <path
            d="M11.133 11h3.734c0.073 0 0.133 0.060 0.133 0.133v3.734c0 0.073-0.060 0.133-0.133 0.133h-3.734c-0.073 0-0.133-0.060-0.133-0.133v-3.734c0-0.073 0.060-0.133 0.133-0.133z" />
    </symbol>

    <symbol id="expr:boolean-add" viewBox="0 0 16 16">
        <path
            d="M15.271 4.5h-3.771v-3.771c-0.001-0.126-0.103-0.228-0.229-0.229h-10.542c-0.126 0.001-0.228 0.103-0.229 0.229v10.542c0.001 0.126 0.103 0.228 0.229 0.229h3.771v3.771c0.001 0.126 0.103 0.228 0.229 0.229h10.542c0.126-0.001 0.228-0.103 0.229-0.229v-10.542c-0.001-0.126-0.103-0.228-0.229-0.229h-0z" />
    </symbol>

    <symbol id="expr:boolean-divide" viewBox="0 0 16 16">
        <path
            d="M11.5 0.73c0-0.001 0-0.003 0-0.004 0-0.123-0.099-0.224-0.222-0.226h-10.548c-0.001-0-0.003-0-0.004-0-0.123 0-0.224 0.099-0.226 0.222v10.548c-0 0.001-0 0.003-0 0.004 0 0.123 0.099 0.224 0.222 0.226h2.778v-8h8z" />
        <path d="M4.5 4.5h7v7h-7v-7z" />
        <path
            d="M15.278 4.5h-2.778v8h-8v2.77c-0 0.001-0 0.003-0 0.004 0 0.123 0.099 0.224 0.222 0.226h10.548c0.001 0 0.003 0 0.004 0 0.123 0 0.224-0.099 0.226-0.222v-10.548c0-0.001 0-0.003 0-0.004 0-0.123-0.099-0.224-0.222-0.226h-0z" />
    </symbol>

    <symbol id="expr:boolean-intersect" viewBox="0 0 16 16">
        <path
            d="M15.271 4.5h-3.771v-3.771c-0.001-0.126-0.103-0.228-0.229-0.229h-10.542c-0.126 0.001-0.228 0.103-0.229 0.229v10.542c0.001 0.126 0.103 0.228 0.229 0.229h3.771v3.771c0.001 0.126 0.103 0.228 0.229 0.229h10.542c0.126-0.001 0.228-0.103 0.229-0.229v-10.542c-0.001-0.126-0.103-0.228-0.229-0.229h-0zM1.5 10.5v-9h9v3h-5.771c-0.126 0.001-0.228 0.103-0.229 0.229v5.771zM14.5 14.5h-9v-3h5.771c0.126-0.001 0.228-0.103 0.229-0.229v-5.771h3z" />
    </symbol>

    <symbol id="expr:boolean-overlap" viewBox="0 0 16 16">
        <path
            d="M15.278 4.5h-3.778v6.77c0 0.001 0 0.003 0 0.004 0 0.123-0.099 0.224-0.222 0.226h-6.778v3.77c-0 0.001-0 0.003-0 0.004 0 0.123 0.099 0.224 0.222 0.226h10.548c0.001 0 0.003 0 0.004 0 0.123 0 0.224-0.099 0.226-0.222v-10.548c0-0.001 0-0.003 0-0.004 0-0.123-0.099-0.224-0.222-0.226h-0z" />
        <path
            d="M4.722 4.5h6.778v-3.77c0-0.001 0-0.003 0-0.004 0-0.123-0.099-0.224-0.222-0.226h-10.548c-0.001-0-0.003-0-0.004-0-0.123 0-0.224 0.099-0.226 0.222v10.548c-0 0.001-0 0.003-0 0.004 0 0.123 0.099 0.224 0.222 0.226h3.778v-6.77c-0-0.001-0-0.003-0-0.004 0-0.123 0.099-0.224 0.222-0.226h0z" />
    </symbol>

    <symbol id="expr:boolean-substract" viewBox="0 0 16 16">
        <path
            d="M15.27 4.5h-3.77v-3.77c0-0.001 0-0.003 0-0.004 0-0.123-0.099-0.224-0.222-0.226h-10.548c-0.001-0-0.003-0-0.004-0-0.123 0-0.224 0.099-0.226 0.222v10.548c-0 0.001-0 0.003-0 0.004 0 0.123 0.099 0.224 0.222 0.226h3.778v3.77c-0 0.001-0 0.003-0 0.004 0 0.123 0.099 0.224 0.222 0.226h10.548c0.001 0 0.003 0 0.004 0 0.123 0 0.224-0.099 0.226-0.222v-10.548c0-0.001 0-0.003 0-0.004 0-0.123-0.099-0.224-0.222-0.226h-0zM14.5 14.5h-9v-9h9z" />
    </symbol>

    <symbol id="expr:bring-forward" viewBox="0 0 16 16">
        <path
            d="M0.265 0h8.47c0.146 0 0.265 0.119 0.265 0.265v6.47c0 0.146-0.119 0.265-0.265 0.265h-8.47c-0.146 0-0.265-0.119-0.265-0.265v-6.47c0-0.146 0.119-0.265 0.265-0.265z" />
        <path
            d="M8.735 9h-8.47c-0 0-0.001 0-0.001 0-0.145 0-0.263 0.118-0.264 0.263v6.472c0 0 0 0.001 0 0.001 0 0.145 0.118 0.263 0.263 0.264h8.472c0 0 0.001 0 0.001 0 0.145 0 0.263-0.118 0.264-0.263v-6.472c0-0 0-0.001 0-0.001 0-0.145-0.118-0.263-0.263-0.264h-0zM8 15h-7v-5h7z" />
        <path d="M13 4l-3 4h2v4h2v-4h2z" />
    </symbol>

    <symbol id="expr:send-backward" viewBox="0 0 16 16">
        <path
            d="M0.265 9h8.47c0.146 0 0.265 0.119 0.265 0.265v6.47c0 0.146-0.119 0.265-0.265 0.265h-8.47c-0.146 0-0.265-0.119-0.265-0.265v-6.47c0-0.146 0.119-0.265 0.265-0.265z" />
        <path
            d="M8.735 7h-8.47c-0 0-0.001 0-0.001 0-0.145 0-0.263-0.118-0.264-0.263v-6.472c0-0 0-0.001 0-0.001 0-0.145 0.118-0.263 0.263-0.264h8.472c0 0 0.001 0 0.001 0 0.145 0 0.263 0.118 0.264 0.263v6.472c0 0 0 0.001 0 0.001 0 0.145-0.118 0.263-0.263 0.264h-0zM8 1h-7v5h7z" />
        <path d="M13 12l-3-4h2v-4h2v4h2z" />
    </symbol>

    <symbol id="expr:bring-front" viewBox="0 0 16 16">
        <path
            d="M0.265 0h8.47c0.146 0 0.265 0.119 0.265 0.265v6.47c0 0.146-0.119 0.265-0.265 0.265h-8.47c-0.146 0-0.265-0.119-0.265-0.265v-6.47c0-0.146 0.119-0.265 0.265-0.265z" />
        <path d="M13 4l-3 4h2v4h2v-4h2z" />
        <path d="M0 9h1v1h-1v-1z" />
        <path d="M2 9h1v1h-1v-1z" />
        <path d="M4 9h1v1h-1v-1z" />
        <path d="M6 9h1v1h-1v-1z" />
        <path d="M2 15h1v1h-1v-1z" />
        <path d="M4 15h1v1h-1v-1z" />
        <path d="M6 15h1v1h-1v-1z" />
        <path d="M0 11h1v1h-1v-1z" />
        <path d="M0 13h1v1h-1v-1z" />
        <path d="M8 11h1v1h-1v-1z" />
        <path d="M8 13h1v1h-1v-1z" />
        <path d="M8 9h1v1h-1v-1z" />
        <path d="M0 15h1v1h-1v-1z" />
        <path d="M8 15h1v1h-1v-1z" />
    </symbol>

    <symbol id="expr:send-back" viewBox="0 0 16 16">
        <path
            d="M0.265 9h8.47c0.146 0 0.265 0.119 0.265 0.265v6.47c0 0.146-0.119 0.265-0.265 0.265h-8.47c-0.146 0-0.265-0.119-0.265-0.265v-6.47c0-0.146 0.119-0.265 0.265-0.265z" />
        <path d="M13 12l-3-4h2v-4h2v4h2z" />
        <path d="M0 6h1v1h-1v-1z" />
        <path d="M2 6h1v1h-1v-1z" />
        <path d="M4 6h1v1h-1v-1z" />
        <path d="M6 6h1v1h-1v-1z" />
        <path d="M2 0h1v1h-1v-1z" />
        <path d="M4 0h1v1h-1v-1z" />
        <path d="M6 0h1v1h-1v-1z" />
        <path d="M0 4h1v1h-1v-1z" />
        <path d="M0 2h1v1h-1v-1z" />
        <path d="M8 4h1v1h-1v-1z" />
        <path d="M8 2h1v1h-1v-1z" />
        <path d="M8 6h1v1h-1v-1z" />
        <path d="M0 0h1v1h-1v-1z" />
        <path d="M8 0h1v1h-1v-1z" />
    </symbol>

    <symbol id="expr:cap-butt" viewBox="0 0 16 16">
        <path d="M1.503 10.5v3.5h14.5v-4.5h-12.507c-0.46 0.608-1.181 0.998-1.993 1h-0z" />
        <path d="M1.503 2v3.5c0.812 0.002 1.533 0.392 1.988 0.994l0.005 0.006h12.507v-4.5z" />
        <path
            d="M1.503 6.5c-0.002-0-0.004-0-0.006-0-0.828 0-1.5 0.672-1.5 1.5s0.672 1.5 1.5 1.5c0.649 0 1.202-0.412 1.411-0.99l0.003-0.010h13.092v-1h-13.092c-0.211-0.586-0.761-0.997-1.408-1h-0zM1.503 8.5c-0.276 0-0.5-0.224-0.5-0.5s0.224-0.5 0.5-0.5c0.276 0 0.5 0.224 0.5 0.5v0c0 0.276-0.224 0.5-0.5 0.5v0z" />
    </symbol>

    <symbol id="expr:cap-square" viewBox="0 0 16 16">
        <path
            d="M0 2v12h16v-4.5h-7.507c-0.461 0.61-1.185 1-2 1-1.381 0-2.5-1.119-2.5-2.5s1.119-2.5 2.5-2.5c0.815 0 1.539 0.39 1.995 0.994l0.005 0.006h7.507v-4.5z" />
        <path
            d="M6.5 6.5c-0.002-0-0.004-0-0.006-0-0.828 0-1.5 0.672-1.5 1.5s0.672 1.5 1.5 1.5c0.649 0 1.202-0.412 1.411-0.99l0.003-0.010h8.092v-1h-8.092c-0.211-0.586-0.761-0.997-1.408-1h-0zM6.5 8.5c-0.276 0-0.5-0.224-0.5-0.5s0.224-0.5 0.5-0.5c0.276 0 0.5 0.224 0.5 0.5v0c0 0.276-0.224 0.5-0.5 0.5v0z" />
    </symbol>

    <symbol id="expr:cap-round" viewBox="0 0 16 16">
        <path
            d="M0 8v0c0 3.314 2.686 6 6 6v0h10v-4.5h-7.507c-0.461 0.61-1.185 1-2 1-1.381 0-2.5-1.119-2.5-2.5s1.119-2.5 2.5-2.5c0.815 0 1.539 0.39 1.995 0.994l0.005 0.006h7.507v-4.5h-10c-3.314 0-6 2.686-6 6v0z" />
        <path
            d="M6.5 6.5c-0.002-0-0.004-0-0.006-0-0.828 0-1.5 0.672-1.5 1.5s0.672 1.5 1.5 1.5c0.649 0 1.202-0.412 1.411-0.99l0.003-0.010h8.092v-1h-8.092c-0.211-0.586-0.761-0.997-1.408-1h-0zM6.5 8.5c-0.276 0-0.5-0.224-0.5-0.5s0.224-0.5 0.5-0.5c0.276 0 0.5 0.224 0.5 0.5v0c0 0.276-0.224 0.5-0.5 0.5v0z" />
    </symbol>

    <symbol id="expr:colorpicker-tool" viewBox="0 0 16 16">
        <path
            d="M15.118 1.033l-0.151-0.151c-0.493-0.492-1.173-0.797-1.925-0.797s-1.432 0.304-1.925 0.797l-2.524 2.524-0.033-0.033c-0.119-0.12-0.285-0.194-0.467-0.194s-0.347 0.074-0.466 0.193l-0.001 0.001-0.17 0.169c-0.119 0.12-0.193 0.285-0.193 0.467s0.074 0.348 0.193 0.468l0.283 0.283-3.52 3.52c-1.143 1.143-2.975 3.381-2.975 3.381s-0.373 1.922-0.59 2.684l-0.363 0.363c-0.128 0.128-0.207 0.305-0.207 0.5s0.079 0.372 0.207 0.5v0c0.128 0.128 0.305 0.207 0.5 0.207s0.372-0.079 0.5-0.207l0.363-0.363c0.762-0.217 2.684-0.59 2.684-0.59s2.238-1.832 3.381-2.975l3.52-3.52 0.283 0.282c0.119 0.12 0.285 0.194 0.467 0.194s0.347-0.074 0.466-0.193l0.001-0.001 0.17-0.169c0.12-0.119 0.194-0.285 0.194-0.467s-0.074-0.347-0.193-0.466l-0.034-0.034 2.524-2.524c0.493-0.492 0.798-1.173 0.798-1.925s-0.305-1.432-0.798-1.925l-0-0zM7.013 11.073c-0.9 0.9-2.555 2.285-3.115 2.749-0.446 0.089-1.383 0.279-2.067 0.445-0.013-0.023-0.026-0.042-0.040-0.060l0.001 0.001c-0.017-0.013-0.036-0.026-0.057-0.038l-0.002-0.001c0.165-0.684 0.356-1.621 0.445-2.067 0.464-0.56 1.846-2.212 2.749-3.115l3.52-3.52 2.086 2.086z" />
    </symbol>

    <symbol id="expr:delete" viewBox="0 0 16 16">
        <path
            d="M12.7 1.5h-2.729c-0.068-0.563-0.542-0.996-1.117-1h-1.208c-0.575 0.004-1.049 0.437-1.116 0.995l-0.001 0.005h-3.229c-0.994 0-1.8 0.806-1.8 1.8v0 0.2h13v-0.2c0-0.994-0.806-1.8-1.8-1.8v0z" />
        <path
            d="M2 14.5c0 0.552 0.448 1 1 1v0h10c0.552 0 1-0.448 1-1v0-10h-12zM11 6.5c0-0.276 0.224-0.5 0.5-0.5s0.5 0.224 0.5 0.5v0 7.5c0 0.276-0.224 0.5-0.5 0.5s-0.5-0.224-0.5-0.5v0zM7.5 6.5c0-0.276 0.224-0.5 0.5-0.5s0.5 0.224 0.5 0.5v0 7.5c0 0.276-0.224 0.5-0.5 0.5s-0.5-0.224-0.5-0.5v0zM4 6.5c0-0.276 0.224-0.5 0.5-0.5s0.5 0.224 0.5 0.5v0 7.5c0 0.276-0.224 0.5-0.5 0.5s-0.5-0.224-0.5-0.5v0z" />
    </symbol>

    <symbol id="expr:direct-selection-tool" viewBox="0 0 16 16">
        <path
            d="M13.919 10.726l-11.5-10.66c-0.044-0.040-0.103-0.065-0.168-0.065-0.136 0-0.247 0.109-0.251 0.244v15.5c0 0 0 0.001 0 0.001 0 0.139 0.112 0.251 0.251 0.251 0.068 0 0.129-0.027 0.174-0.070l-0 0 4.533-4.32c0.041-0.040 0.097-0.066 0.158-0.069l0.001-0 6.646-0.378c0.132-0.008 0.237-0.117 0.237-0.251 0-0.073-0.031-0.139-0.081-0.184l-0-0zM7.060 10.537c-0.311 0.018-0.588 0.146-0.796 0.347l0-0-3.264 3.111v-12.033l8.948 8.297z" />
    </symbol>

    <symbol id="expr:drop-arrow" viewBox="0 0 16 16">
        <path d="M8.102 10.207l-3.45-3.348 0.696-0.718 2.732 2.652 2.561-2.641 0.718 0.696-3.257 3.359z" />
    </symbol>

    <symbol id="expr:duplicate-layer" viewBox="0 0 16 16">
        <path
            d="M13.891 5h-8.391v9.891c0.001 0.612 0.497 1.108 1.109 1.109h7.282c0.612-0.001 1.108-0.497 1.109-1.109v-8.782c-0.001-0.612-0.497-1.108-1.109-1.109h-0z" />
        <path
            d="M10.5 1.109c0-0 0-0.001 0-0.001 0-0.612-0.495-1.107-1.107-1.108h-7.284c-0 0-0.001 0-0.001 0-0.612 0-1.107 0.495-1.108 1.107v8.784c0 0 0 0.001 0 0.001 0 0.612 0.496 1.107 1.107 1.108h2.402v-7h5.991z" />
    </symbol>

    <symbol id="expr:ellipse-tool" viewBox="0 0 16 16">
        <path
            d="M8 15.5c-4.142 0-7.5-3.358-7.5-7.5s3.358-7.5 7.5-7.5c4.142 0 7.5 3.358 7.5 7.5v0c-0.005 4.14-3.36 7.495-7.5 7.5h-0zM8 1.5c-3.59 0-6.5 2.91-6.5 6.5s2.91 6.5 6.5 6.5c3.59 0 6.5-2.91 6.5-6.5v0c-0.004-3.588-2.912-6.496-6.5-6.5h-0z" />
    </symbol>

    <symbol id="expr:fill-evenodd" viewBox="0 0 16 16">
        <path
            d="M13.25 15h-10.5c-0.966-0.001-1.749-0.784-1.75-1.75v-10.5c0.001-0.966 0.784-1.749 1.75-1.75h10.5c0.966 0.001 1.749 0.784 1.75 1.75v10.5c-0.001 0.966-0.784 1.749-1.75 1.75h-0zM8 4c-2.209 0-4 1.791-4 4s1.791 4 4 4c2.209 0 4-1.791 4-4v0c0-2.209-1.791-4-4-4v0z" />
    </symbol>

    <symbol id="expr:fill-nonzero" viewBox="0 0 16 16">
        <path
            d="M2.75 15c-0.966-0.001-1.749-0.784-1.75-1.75v-10.5c0.001-0.966 0.784-1.749 1.75-1.75h10.5c0.966 0.001 1.749 0.784 1.75 1.75v10.5c-0.002 0.966-0.784 1.748-1.75 1.75h-0zM4 8c0 2.209 1.791 4 4 4s4-1.791 4-4c0-2.209-1.791-4-4-4v0c-2.209 0-4 1.791-4 4v0zM5 8c0-1.657 1.343-3 3-3s3 1.343 3 3c0 1.657-1.343 3-3 3v0c-1.657 0-3-1.343-3-3v0z" />
    </symbol>

    <symbol id="expr:flip-horizontally" viewBox="0 0 16 16">
        <path
            d="M7.759 0h0.484c0.142 0 0.258 0.116 0.258 0.258v15.484c0 0.142-0.116 0.258-0.258 0.258h-0.484c-0.142 0-0.258-0.116-0.258-0.258v-15.484c0-0.142 0.116-0.258 0.258-0.258z" />
        <path
            d="M5.245 1.5c-0.082 0-0.154 0.039-0.2 0.099l-0 0.001-4.993 6.28c-0.034 0.042-0.054 0.095-0.054 0.153s0.020 0.112 0.054 0.154l-0-0 4.994 6.222c0.046 0.058 0.116 0.095 0.195 0.095 0.002 0 0.004-0 0.006-0h-0c0.002 0 0.004 0 0.006 0 0.136 0 0.247-0.109 0.25-0.244v-12.505c0-0.002 0-0.003 0-0.005 0-0.136-0.109-0.247-0.245-0.25h-0zM4.501 12.124l-3.289-4.1 3.289-4.133z" />
        <path
            d="M15.947 7.876l-4.993-6.276c-0.047-0.059-0.119-0.096-0.199-0.096-0.139 0-0.251 0.111-0.254 0.249v12.5c0.003 0.138 0.115 0.249 0.254 0.249 0.080 0 0.151-0.037 0.198-0.094l0-0 4.994-6.222c0.034-0.042 0.055-0.096 0.055-0.155s-0.021-0.113-0.055-0.155l0 0z" />
    </symbol>

    <symbol id="expr:flip-vertically" viewBox="0 0 16 16">
        <path
            d="M0.258 7.5h15.484c0.142 0 0.258 0.116 0.258 0.258v0.484c0 0.142-0.116 0.258-0.258 0.258h-15.484c-0.142 0-0.258-0.116-0.258-0.258v-0.484c0-0.142 0.116-0.258 0.258-0.258z" />
        <path
            d="M14.5 5.244c0-0.082-0.039-0.154-0.099-0.2l-0.001-0-6.276-4.99c-0.042-0.034-0.095-0.054-0.154-0.054s-0.112 0.020-0.154 0.054l0-0-6.222 4.994c-0.058 0.046-0.095 0.116-0.095 0.195 0 0.002 0 0.004 0 0.006v-0c-0 0.002-0 0.004-0 0.006 0 0.136 0.109 0.247 0.244 0.25h12.507c0.138-0.001 0.249-0.112 0.249-0.25 0-0 0-0 0-0.001v0zM3.876 4.5l4.1-3.289 4.133 3.289z" />
        <path
            d="M8.124 15.946l6.276-4.993c0.059-0.047 0.096-0.119 0.096-0.199 0-0.137-0.109-0.249-0.245-0.254l-0-0h-12.5c-0.138 0.003-0.249 0.115-0.249 0.254 0 0.080 0.037 0.151 0.094 0.198l0 0 6.22 4.994c0.042 0.034 0.095 0.054 0.154 0.054s0.112-0.020 0.154-0.054l-0 0z" />
    </symbol>

    <symbol id="expr:group" viewBox="0 0 16 16">
        <path
            d="M8 2.5c0-0.552-0.448-1-1-1v0h-6c-0.552 0-1 0.448-1 1v0 0.5h8.153c-0.092-0.142-0.148-0.314-0.153-0.499l-0-0.001z" />
        <path
            d="M0 4v9.5c0 0.552 0.448 1 1 1v0h14c0.552 0 1-0.448 1-1v0-9c-0.005-0.186-0.061-0.358-0.155-0.504l0.002 0.004z" />
    </symbol>

    <symbol id="expr:guidelines-toggle" viewBox="0 0 16 16">
        <path d="M16 4h-11v-4h-1.026v4h-3.974v1h3.974v11h1.026v-11h11z" />
    </symbol>

    <symbol id="expr:hide" viewBox="0 0 16 16">
        <path
            d="M13.59 5.056c-0.214-0.206-0.442-0.403-0.681-0.586l-0.019-0.014 2.641-2.642c0.136-0.136 0.22-0.323 0.22-0.53 0-0.414-0.336-0.75-0.75-0.75-0.207 0-0.395 0.084-0.53 0.22l-13.436 13.442c-0.13 0.135-0.21 0.318-0.21 0.521 0 0.414 0.336 0.75 0.75 0.75 0.203 0 0.387-0.080 0.522-0.211l3.466-3.465c0.727 0.253 1.565 0.401 2.436 0.406l0.003 0c0.001 0 0.003 0 0.005 0 2.181 0 4.155-0.883 5.585-2.31l-0 0 2.41-2.42zM12.88 9.177c-1.235 1.248-2.948 2.020-4.841 2.020-0.014 0-0.027-0-0.041-0l0.002 0c-0 0-0 0-0 0-0.585 0-1.153-0.073-1.695-0.21l0.048 0.010 0.5-0.5c0.342 0.141 0.739 0.225 1.154 0.229l0.002 0c1.795 0 3.25-1.455 3.25-3.25v0c-0.001-0.381-0.071-0.745-0.197-1.081l0.007 0.021c-0.012 0.775-0.643 1.4-1.42 1.4h-0c-0.035 0-0.066-0.013-0.1-0.016l2.632-2.628c0.259 0.19 0.488 0.382 0.702 0.587l-0.002-0.002 1.71 1.71z" />
        <path
            d="M2.85 10.267l0.7-0.71c-0.153-0.123-0.29-0.248-0.419-0.379l-0.001-0.001-1.71-1.71 1.71-1.71c1.24-1.248 2.958-2.020 4.856-2.020 0.005 0 0.010 0 0.015 0h-0.001c0.446 0.001 0.882 0.041 1.305 0.117l-0.045-0.007 0.82-0.82c-0.613-0.184-1.317-0.29-2.046-0.29-0.012 0-0.024 0-0.036 0h0.002c-0.004-0-0.009-0-0.014-0-2.176 0-4.145 0.887-5.565 2.319l-0.001 0.001-2.42 2.41 2.42 2.42c0.131 0.135 0.272 0.26 0.421 0.373l0.009 0.007z" />
        <path
            d="M4.76 7.476c-0 0.008-0 0.018-0 0.028 0 0.268 0.037 0.526 0.105 0.772l-0.005-0.020 3.93-3.93c-0.225-0.064-0.484-0.1-0.752-0.1-0.010 0-0.020 0-0.030 0l0.002-0c-1.794 0.003-3.247 1.456-3.25 3.25v0z" />
    </symbol>

    <symbol id="expr:image" viewBox="0 0 16 16">
        <path
            d="M2.038 15c-0.573-0.001-1.037-0.465-1.038-1.038v-11.924c0.001-0.573 0.465-1.037 1.038-1.038h11.924c0.573 0.001 1.037 0.465 1.038 1.038v11.924c-0.001 0.573-0.465 1.037-1.038 1.038h-0zM2 2.038v11.924l0.005 0.005 3.995-4.745 2 2.11 4-6.332 2 2.956v-5.918c0-0 0-0.001 0-0.001 0-0.020-0.016-0.036-0.036-0.037h-11.926c-0.021 0-0.038 0.017-0.038 0.038v0zM3.5 5.5c0-1.105 0.895-2 2-2s2 0.895 2 2c0 1.105-0.895 2-2 2v0c-1.105 0-2-0.895-2-2v0z" />
    </symbol>

    <symbol id="expr:join-bevel" viewBox="0 0 16 16">
        <path d="M5.989 10v-10h-5.989v10l5.989 6h10.011v-6z" />
    </symbol>


    <symbol id="expr:join-miter" viewBox="0 0 16 16">
        <path d="M5.989 10v-10h-5.989v16h16v-6z" />
    </symbol>

    <symbol id="expr:join-round" viewBox="0 0 16 16">
        <path d="M5.989 10v-10h-5.989v10.011c0 3.308 2.681 5.989 5.989 5.989h10.011v-6z" />
    </symbol>

    <symbol id="expr:layer" viewBox="0 0 16 16">
        <path
            d="M2.75 15c-0.966-0.001-1.749-0.784-1.75-1.75v-10.5c0-0.966 0.784-1.75 1.75-1.75v0h10.5c0.966 0.001 1.749 0.784 1.75 1.75v10.5c-0.001 0.966-0.784 1.749-1.75 1.75h-0zM8 11.062v2.938h3.062v-2.937h-3.062v-3.063h3.063v3.062h2.937v-3.062h-2.938v-3.063h2.938v-2.187c0-0.414-0.336-0.75-0.75-0.75v0h-2.188v2.937h-3.062v-2.937h-3.063v2.937h-2.937v3.063h2.937v3.062h-2.937v2.188c0 0.414 0.336 0.75 0.75 0.75v0h2.187v-2.938zM4.938 8v-3.062h3.062v3.062z" />
    </symbol>

    <symbol id="expr:layers" viewBox="0 0 16 16">
        <path d="M8 0.827l-8 5.175 8 5.172 8-5.172z" />
        <path d="M8 14.172l-7.227-4.671-0.773 0.5 8 5.172 8-5.172-0.773-0.5z" />
    </symbol>

    <symbol id="expr:lock" viewBox="0 0 16 16">
        <path
            d="M13 6h-1v-1c0-2.209-1.791-4-4-4s-4 1.791-4 4v0 1h-1c-0.552 0-1 0.448-1 1v0 7c0 0.552 0.448 1 1 1v0h10c0.552 0 1-0.448 1-1v0-7c0-0.552-0.448-1-1-1v0zM9 11.5h-2c-0.552 0-1-0.448-1-1s0.448-1 1-1v0h2c0.552 0 1 0.448 1 1s-0.448 1-1 1v0zM11 6h-6v-1c0-1.657 1.343-3 3-3s3 1.343 3 3v0z" />
    </symbol>

    <symbol id="expr:new-layer" viewBox="0 0 16 16">
        <path d="M7 1l-5 5h5v-5z" />
        <path d="M13 1h-5v6h-6v7c0 0.552 0.448 1 1 1v0h10c0.552 0 1-0.448 1-1v0-12c0-0.552-0.448-1-1-1v0z" />
    </symbol>

    <symbol id="expr:pen-tool" viewBox="0 0 16 16">
        <path
            d="M15.828 4.576l-4.206-4.206c-0.045-0.045-0.108-0.073-0.177-0.073s-0.131 0.028-0.177 0.073v0l-2.734 2.734-6.346 2.8c-0.073 0.033-0.126 0.098-0.143 0.176l-0 0.002-1.939 9.321c-0.003 0.015-0.005 0.032-0.005 0.050 0 0.138 0.111 0.249 0.249 0.25h0c0.018-0 0.035-0.002 0.052-0.006l-0.002 0 9.331-1.94c0.075-0.017 0.136-0.064 0.17-0.129l0.001-0.001 3.010-5.788 2.913-2.913c0.045-0.045 0.072-0.107 0.072-0.176 0-0.068-0.027-0.129-0.071-0.174l0 0zM9.182 12.853l-6.97 1.449 2.574-2.574c0.072 0.026 0.155 0.044 0.241 0.050l0.003 0c0.552 0 1-0.448 1-1s-0.448-1-1-1c-0.552 0-1 0.448-1 1v0c0.006 0.089 0.024 0.172 0.051 0.25l-0.002-0.007-2.578 2.576 1.441-6.931 5.7-2.517 3.329 3.329z" />
    </symbol>

    <symbol id="expr:line-tool" viewBox="0 0 16 16">
        <path
            d="M1.5 15c-0.276-0-0.5-0.224-0.5-0.5 0-0.138 0.056-0.263 0.146-0.354l13-13c0.091-0.094 0.219-0.153 0.36-0.153 0.276 0 0.5 0.224 0.5 0.5 0 0.141-0.058 0.269-0.152 0.36l-13 13c-0.090 0.091-0.215 0.146-0.353 0.146-0 0-0 0-0.001 0h0z" />
    </symbol>

    <symbol id="expr:polygon-tool" viewBox="0 0 16 16">
        <path
            d="M15.961 15.14l-7.721-14.515c-0.043-0.079-0.126-0.132-0.22-0.132s-0.178 0.053-0.22 0.131l-0.001 0.001-7.76 14.514c-0.019 0.034-0.030 0.075-0.030 0.118 0 0.138 0.112 0.25 0.25 0.25h15.482c0.138-0.001 0.249-0.112 0.249-0.25 0-0.043-0.011-0.083-0.030-0.118l0.001 0.001zM1.51 14.507l6.507-12.17 6.473 12.17z" />
    </symbol>

    <symbol id="expr:rectangle-tool" viewBox="0 0 16 16">
        <path
            d="M13.8 14.5h-11.6c-0.4 0-0.7-0.3-0.8-0.8v-11.5c0-0.4 0.3-0.7 0.8-0.8h11.5c0.4 0 0.7 0.3 0.8 0.8v11.5c0.003 0.026 0.005 0.056 0.005 0.087 0 0.391-0.315 0.709-0.705 0.713h-0zM2.5 13.5h11v-11h-11z" />
    </symbol>

    <symbol id="expr:star-tool" viewBox="0 0 16 16">
        <path
            d="M15.751 6.427c0.035-0.043 0.057-0.098 0.057-0.159 0-0.116-0.079-0.214-0.186-0.242l-0.002-0-4.688-1.203c-0.064-0.017-0.117-0.057-0.15-0.11l-0.001-0.001-2.568-4.164c-0.045-0.072-0.124-0.118-0.213-0.118s-0.168 0.047-0.212 0.117l-0.001 0.001-2.568 4.164c-0.034 0.054-0.087 0.094-0.149 0.111l-0.002 0-4.688 1.203c-0.109 0.029-0.188 0.126-0.188 0.242 0 0.061 0.021 0.116 0.057 0.159l-0-0 3.103 3.785c0.035 0.043 0.057 0.099 0.057 0.159 0 0.006-0 0.011-0.001 0.017l0-0.001-0.326 4.917c-0 0.005-0.001 0.011-0.001 0.017 0 0.138 0.112 0.25 0.25 0.25 0.034 0 0.067-0.007 0.096-0.019l-0.002 0.001 4.479-1.831c0.028-0.012 0.061-0.019 0.095-0.019s0.067 0.007 0.097 0.019l-0.002-0.001 4.479 1.831c0.028 0.012 0.060 0.019 0.095 0.019 0.138 0 0.25-0.112 0.25-0.25 0-0.006-0-0.012-0.001-0.017l0 0.001-0.326-4.917c-0-0.005-0.001-0.010-0.001-0.016 0-0.061 0.021-0.116 0.057-0.16l-0 0zM11.875 9.578c-0.176 0.214-0.283 0.491-0.283 0.792 0 0.028 0.001 0.056 0.003 0.084l-0-0.004 0.247 3.722-3.367-1.377c-0.14-0.059-0.303-0.093-0.474-0.093s-0.334 0.034-0.482 0.096l0.008-0.003-3.367 1.377 0.247-3.719c0.002-0.025 0.003-0.053 0.003-0.083 0-0.301-0.106-0.577-0.284-0.793l0.002 0.002-2.359-2.878 3.549-0.911c0.32-0.083 0.584-0.282 0.75-0.549l0.003-0.005 1.93-3.13 1.93 3.129c0.169 0.273 0.435 0.472 0.747 0.553l0.009 0.002 3.546 0.91z" />
    </symbol>

    <symbol id="expr:ruler-toggle" viewBox="0 0 16 16">
        <path
            d="M15.866 0h-15.733c-0 0-0 0-0 0-0.073 0-0.133 0.059-0.133 0.133 0 0 0 0 0 0v0 15.734c0 0 0 0 0 0 0 0.073 0.059 0.133 0.133 0.133 0 0 0 0 0 0h3.733c0 0 0 0 0 0 0.074 0 0.133-0.059 0.134-0.133v-11.867h11.866c0 0 0 0 0 0 0.074 0 0.133-0.059 0.134-0.133v-3.734c-0.001-0.074-0.060-0.133-0.134-0.133 0 0 0 0 0 0v0zM3 4v2h-2v-2zM3 9h-2v-2h2zM1 10h2v2h-2zM3 15h-2v-2h2zM4 1h2v2h-2zM7 1h2v2h-2zM10 1h2v2h-2zM15 3h-2v-2h2z" />
    </symbol>

    <symbol id="expr:rulergrid" viewBox="0 0 16 16">
        <path
            d="M12.473-0.010l-1.992 1.992 1.017 1.017-0.707 0.707-1.017-1.016-1.414 1.413 2.017 2.017-0.707 0.707-2.017-2.017-1.414 1.414 1.017 1.017-0.707 0.707-1.018-1.017-1.414 1.414 1.767 1.767-0.707 0.707-1.767-1.767-1.419 1.414 1.017 1.017-0.707 0.707-1.010-1.016-1.3 1.3 3.536 3.536 12.482-12.485z" />
        <path d="M2.006 1.99h6.5v-1h-7.5v7.5h1z" />
        <path d="M14.006 13.99h-6.5v1h7.5v-7.5h-1z" />
    </symbol>

    <symbol id="expr:selection-tool" viewBox="0 0 16 16">
        <path
            d="M2 0.246v15.5c0 0 0 0.001 0 0.001 0 0.139 0.112 0.251 0.251 0.251 0.068 0 0.129-0.027 0.174-0.070l-0 0 4.533-4.32c0.041-0.040 0.097-0.066 0.158-0.069l0.001-0 6.646-0.378c0.132-0.008 0.237-0.117 0.237-0.251 0-0.073-0.031-0.139-0.081-0.184l-0-0-11.5-10.66c-0.044-0.040-0.103-0.065-0.168-0.065-0.136 0-0.247 0.109-0.251 0.244v0z" />
    </symbol>

    <symbol id="expr:settings" viewBox="0 0 16 16">
        <path
            d="M15.886 9.3c0.070-0.389 0.111-0.839 0.114-1.297l0-0.003c-0.003-0.461-0.044-0.911-0.121-1.348l0.007 0.048-1.567-0.73c-0.128-0.393-0.27-0.727-0.437-1.045l0.018 0.037 0.59-1.623c-0.515-0.712-1.12-1.317-1.809-1.816l-0.023-0.016-1.623 0.59c-0.282-0.148-0.617-0.289-0.963-0.403l-0.048-0.013-0.724-1.567c-0.389-0.070-0.839-0.111-1.297-0.114l-0.003-0c-0.461 0.003-0.911 0.044-1.348 0.121l0.048-0.007-0.73 1.567c-0.393 0.128-0.727 0.27-1.045 0.437l0.037-0.018-1.623-0.59c-0.711 0.514-1.317 1.119-1.816 1.806l-0.016 0.023 0.593 1.623c-0.148 0.282-0.289 0.617-0.403 0.963l-0.013 0.048-1.57 0.727c-0.070 0.389-0.111 0.839-0.114 1.297l-0 0.003c0.003 0.461 0.044 0.911 0.121 1.348l-0.007-0.048 1.567 0.73c0.128 0.393 0.27 0.727 0.437 1.045l-0.018-0.037-0.59 1.623c0.515 0.712 1.12 1.317 1.809 1.816l0.023 0.016 1.62-0.593c0.283 0.149 0.617 0.29 0.964 0.404l0.047 0.013 0.73 1.567c0.388 0.070 0.836 0.112 1.294 0.116l0.003 0c0.461-0.003 0.911-0.044 1.348-0.121l-0.048 0.007 0.73-1.567c0.394-0.127 0.728-0.268 1.048-0.434l-0.037 0.017 1.623 0.591c0.711-0.515 1.317-1.12 1.816-1.809l0.016-0.023-0.59-1.623c0.148-0.282 0.289-0.617 0.403-0.963l0.013-0.048zM8 12.667c-2.578 0-4.667-2.089-4.667-4.667s2.089-4.667 4.667-4.667c2.578 0 4.667 2.089 4.667 4.667v0 0c-0.001 2.577-2.090 4.666-4.667 4.667h-0z" />
    </symbol>

    <symbol id="expr:shaper-tool" viewBox="0 0 16 16">
        <path
            d="M14.73 5.56c-0.805-1.085-1.911-1.906-3.193-2.346l-0.047-0.014v-2.95c0-0.001 0-0.001 0-0.002 0-0.136-0.11-0.247-0.246-0.248h-10.994c-0.001 0-0.001-0-0.002-0-0.136 0-0.247 0.11-0.248 0.246v10.994c0 0.001-0 0.001-0 0.002 0 0.136 0.11 0.247 0.246 0.248h2.954c0.701 2.074 2.353 3.657 4.424 4.249l0.046 0.011v-1.040c-1.559-0.534-2.78-1.699-3.377-3.183l-0.013-0.037h0.52v-1h-3.8v-9.49h9.49v2.93l0.68 0.22c2.243 0.752 3.83 2.834 3.83 5.287 0 0.62-0.101 1.216-0.288 1.773l0.011-0.039-0.003 0.009v0.010l0.79 0.72c0.31-0.726 0.49-1.57 0.49-2.456 0-0.005 0-0.010-0-0.015v0.001c0-0.007 0-0.016 0-0.025 0-1.452-0.477-2.792-1.282-3.873l0.012 0.017z" />
        <path
            d="M9.436 2.872c-0 0-0.001 0-0.001 0-0.703 0-1.38 0.11-2.016 0.313l0.047-0.013 0.3 0.954c0.497-0.161 1.069-0.254 1.662-0.254 0.003 0 0.005 0 0.008 0h-0z" />
        <path
            d="M4.237 5.428l0.792 0.611c0.349-0.45 0.753-0.835 1.205-1.155l0.018-0.012-0.573-0.82c-0.554 0.392-1.030 0.846-1.431 1.361l-0.011 0.015z" />
        <path
            d="M2.879 9.124l1 0.047c0.029-0.602 0.149-1.166 0.347-1.693l-0.013 0.038-0.939-0.345c-0.148 0.388-0.266 0.844-0.334 1.316l-0.004 0.035q-0.043 0.3-0.057 0.602z" />
        <path d="M8.67 16l2.66-2.535 0.391-0.069 3.688-0.21-6.739-6.247z" />
    </symbol>

    <symbol id="expr:snap" viewBox="0 0 16 16">
        <path
            d="M14.75 0.5h-3.5c-0.138 0-0.25 0.112-0.25 0.25v0 6.75c0 2.21-0.79 4-3 4h-0.151c-1.597-0.113-2.85-1.436-2.85-3.052 0-0.021 0-0.042 0.001-0.063l-0 0.003v-7.638c0-0.138-0.112-0.25-0.25-0.25v0h-3.5c-0.138 0-0.25 0.112-0.25 0.25v0 7.75c0 3.866 3.134 7 7 7v0h0.207c3.797-0.216 6.794-3.348 6.794-7.18 0-0.038-0-0.077-0.001-0.115l0 0.006v-7.461c0-0.138-0.112-0.25-0.25-0.25v0zM8.178 14.5h-0.178c-3.312-0.004-5.996-2.688-6-6v-4h2v3.888c-0 0.014-0 0.031-0 0.047 0 2.158 1.679 3.924 3.802 4.064l0.012 0.001h0.186c2.505 0 4-1.869 4-5v-3h2v3.711c0.001 0.030 0.001 0.065 0.001 0.1 0 3.292-2.565 5.984-5.805 6.188l-0.018 0.001z" />
    </symbol>

    <symbol id="expr:stroke-center" viewBox="0 0 16 16">
        <path
            d="M3 15.5c-1.381 0-2.5-1.119-2.5-2.5 0-0.815 0.39-1.539 0.994-1.995l0.006-0.005v-11h-1.5v16h16v-1.5h-11c-0.461 0.61-1.185 1-2 1v0z" />
        <path d="M6 10.013v-10.013h-1.5v11.005c0.189 0.143 0.352 0.306 0.49 0.489l0.005 0.006h11.005v-1.487z" />
        <path
            d="M3.5 11.591v-11.591h-1v11.59c-0.591 0.21-1.006 0.765-1.006 1.416 0 0.828 0.672 1.5 1.5 1.5 0.652 0 1.206-0.415 1.413-0.996l0.003-0.010h11.59v-1h-11.591c-0.154-0.426-0.483-0.755-0.899-0.906l-0.010-0.003zM3 13.5c-0.276 0-0.5-0.224-0.5-0.5s0.224-0.5 0.5-0.5c0.276 0 0.5 0.224 0.5 0.5v0c0 0.276-0.224 0.5-0.5 0.5v0z" />
    </symbol>

    <symbol id="expr:stroke-inside" viewBox="0 0 16 16">
        <path
            d="M5 13.5c-1.381 0-2.5-1.119-2.5-2.5v0c0.001-0.286 0.047-0.561 0.131-0.819l-0.005 0.019 0.009-0.029 0.011-0.029c0.179-0.463 0.473-0.848 0.848-1.132l0.006-0.005v-9.005h-3.5v16h16v-3.5h-9c-0.461 0.61-1.185 1-2 1v0z" />
        <path
            d="M6.5 10.5h-0.091c-0.154-0.426-0.483-0.755-0.899-0.906l-0.010-0.003v-9.591h-1v9.59c-0.591 0.21-1.006 0.765-1.006 1.416 0 0.828 0.672 1.5 1.5 1.5 0.652 0 1.206-0.415 1.413-0.996l0.003-0.010h9.59v-1zM5 11.5c-0.276 0-0.5-0.224-0.5-0.5s0.224-0.5 0.5-0.5c0.276 0 0.5 0.224 0.5 0.5v0c0 0.276-0.224 0.5-0.5 0.5v0z" />
    </symbol>

    <symbol id="expr:stroke-outside" viewBox="0 0 16 16">
        <path
            d="M2.003 13.088v-13.091h-1v13.090c-0.591 0.21-1.006 0.765-1.006 1.416 0 0.828 0.672 1.5 1.5 1.5 0.652 0 1.206-0.415 1.413-0.996l0.003-0.010h13.090v-1h-13.091c-0.154-0.426-0.483-0.755-0.899-0.906l-0.010-0.003zM1.503 14.997c-0.276 0-0.5-0.224-0.5-0.5s0.224-0.5 0.5-0.5c0.276 0 0.5 0.224 0.5 0.5v0c0 0.276-0.224 0.5-0.5 0.5v0z" />
        <path d="M7.003 8.997v-9h-4v13h13v-4h-9z" />
    </symbol>

    <symbol id="expr:switch-horizontal" viewBox="0 0 16 16">
        <path
            d="M15.267 4.5h-6.534c-0.129 0-0.233 0.104-0.233 0.233v0 6.534c0 0.129 0.104 0.233 0.233 0.233v0h6.534c0.129 0 0.233-0.104 0.233-0.233v0 0-6.534c0-0.129-0.104-0.233-0.233-0.233v0zM14.5 10.5h-5v-5h5z" />
        <path
            d="M0.733 4.5h6.534c0.129 0 0.233 0.104 0.233 0.233v6.534c0 0.129-0.104 0.233-0.233 0.233h-6.534c-0.129 0-0.233-0.104-0.233-0.233v-6.534c0-0.129 0.104-0.233 0.233-0.233z" />
        <path d="M2.492 2.5h8.5v1.5l3-2-3-2v1.5h-8.5c-0.276 0-0.5 0.224-0.5 0.5s0.224 0.5 0.5 0.5v0z" />
        <path d="M13.492 13.5h-8.5v-1.5l-3 2 3 2v-1.5h8.5c0.276 0 0.5-0.224 0.5-0.5s-0.224-0.5-0.5-0.5v0z" />
    </symbol>

    <symbol id="expr:switch-vertical" viewBox="0 0 16 16">
        <path
            d="M11.5 15.267v-6.534c0-0.129-0.104-0.233-0.233-0.233v0h-6.534c-0.129 0-0.233 0.104-0.233 0.233v0 6.534c0 0.129 0.104 0.233 0.233 0.233h6.534c0.129 0 0.233-0.104 0.233-0.233v0zM5.5 14.5v-5h5v5z" />
        <path
            d="M4.733 0.5h6.534c0.129 0 0.233 0.104 0.233 0.233v6.534c0 0.129-0.104 0.233-0.233 0.233h-6.534c-0.129 0-0.233-0.104-0.233-0.233v-6.534c0-0.129 0.104-0.233 0.233-0.233z" />
        <path d="M13.5 2.492v8.5h-1.5l2 3 2-3h-1.5v-8.5c0-0.276-0.224-0.5-0.5-0.5s-0.5 0.224-0.5 0.5v0z" />
        <path d="M2.5 13.492v-8.5h1.5l-2-3-2 3h1.5v8.5c0 0.276 0.224 0.5 0.5 0.5s0.5-0.224 0.5-0.5v0z" />
    </symbol>

    <symbol id="expr:text-tool" viewBox="0 0 16 16">
        <path
            d="M12.609 15.168l-1.777-4.541h-5.723l-1.757 4.541h-1.68l5.644-14.336h1.4l5.612 14.336zM10.314 9.133l-1.66-4.424q-0.322-0.841-0.664-2.061c-0.197 0.831-0.408 1.519-0.657 2.189l0.042-0.128-1.675 4.424z" />
    </symbol>

    <symbol id="expr:distribute-horizontally" viewBox="0 0 16 16">
        <path
            d="M7.75 0h0.5c0.138 0 0.25 0.112 0.25 0.25v15.5c0 0.138-0.112 0.25-0.25 0.25h-0.5c-0.138 0-0.25-0.112-0.25-0.25v-15.5c0-0.138 0.112-0.25 0.25-0.25z" />
        <path
            d="M0.75 1.392h4.5c0.138 0 0.25 0.112 0.25 0.25v12.5c0 0.138-0.112 0.25-0.25 0.25h-4.5c-0.138 0-0.25-0.112-0.25-0.25v-12.5c0-0.138 0.112-0.25 0.25-0.25z" />
        <path
            d="M10.75 1.245h4.5c0.138 0 0.25 0.112 0.25 0.25v12.5c0 0.138-0.112 0.25-0.25 0.25h-4.5c-0.138 0-0.25-0.112-0.25-0.25v-12.5c0-0.138 0.112-0.25 0.25-0.25z" />
    </symbol>

    <symbol id="expr:distribute-vertically" viewBox="0 0 16 16">
        <path
            d="M0.25 7.5h15.5c0.138 0 0.25 0.112 0.25 0.25v0.5c0 0.138-0.112 0.25-0.25 0.25h-15.5c-0.138 0-0.25-0.112-0.25-0.25v-0.5c0-0.138 0.112-0.25 0.25-0.25z" />
        <path
            d="M1.75 10.5h12.5c0.138 0 0.25 0.112 0.25 0.25v4.5c0 0.138-0.112 0.25-0.25 0.25h-12.5c-0.138 0-0.25-0.112-0.25-0.25v-4.5c0-0.138 0.112-0.25 0.25-0.25z" />
        <path
            d="M1.75 0.5h12.5c0.138 0 0.25 0.112 0.25 0.25v4.5c0 0.138-0.112 0.25-0.25 0.25h-12.5c-0.138 0-0.25-0.112-0.25-0.25v-4.5c0-0.138 0.112-0.25 0.25-0.25z" />
    </symbol>

    <symbol id="expr:h-align-left" viewBox="0 0 16 16">
        <path
            d="M0.267 0h0.488c0.147 0 0.267 0.12 0.267 0.267v15.466c0 0.147-0.12 0.267-0.267 0.267h-0.488c-0.147 0-0.267-0.12-0.267-0.267v-15.466c0-0.147 0.12-0.267 0.267-0.267z" />
        <path
            d="M3.25 2h6.5c0.138 0 0.25 0.112 0.25 0.25v4.5c0 0.138-0.112 0.25-0.25 0.25h-6.5c-0.138 0-0.25-0.112-0.25-0.25v-4.5c0-0.138 0.112-0.25 0.25-0.25z" />
        <path
            d="M3.25 9h12.5c0.138 0 0.25 0.112 0.25 0.25v4.5c0 0.138-0.112 0.25-0.25 0.25h-12.5c-0.138 0-0.25-0.112-0.25-0.25v-4.5c0-0.138 0.112-0.25 0.25-0.25z" />
    </symbol>

    <symbol id="expr:h-align-center" viewBox="0 0 16 16">
        <path
            d="M7.768 16c-0 0-0.001 0-0.001 0-0.147 0-0.266-0.119-0.267-0.266v-1.734h-5.75c-0.138-0.001-0.249-0.112-0.25-0.25v-4.5c0-0.138 0.112-0.25 0.25-0.25v0h5.75v-2h-2.749c-0 0-0.001 0-0.001 0-0.138 0-0.249-0.111-0.25-0.249v-4.501c0-0.138 0.112-0.25 0.25-0.25v0h2.75v-1.733c0-0 0-0 0-0 0-0.147 0.12-0.267 0.267-0.267 0 0 0 0 0 0h0.488c0 0 0 0 0 0 0.147 0 0.267 0.119 0.267 0.267 0 0 0 0 0 0v0 1.733h2.729c0.138 0.001 0.249 0.112 0.25 0.25v4.5c0 0.138-0.112 0.25-0.25 0.25v0h-2.729v2h5.728c0.138 0 0.25 0.112 0.25 0.25v0 4.5c0 0.138-0.112 0.25-0.25 0.25v0h-5.728v1.733c0 0 0 0 0 0 0 0.147-0.12 0.267-0.267 0.267-0 0-0 0-0 0v0z" />
    </symbol>

    <symbol id="expr:h-align-right" viewBox="0 0 16 16">
        <path
            d="M15.245 0h0.488c0.147 0 0.267 0.12 0.267 0.267v15.466c0 0.147-0.12 0.267-0.267 0.267h-0.488c-0.147 0-0.267-0.12-0.267-0.267v-15.466c0-0.147 0.12-0.267 0.267-0.267z" />
        <path
            d="M6.25 2h6.5c0.138 0 0.25 0.112 0.25 0.25v4.5c0 0.138-0.112 0.25-0.25 0.25h-6.5c-0.138 0-0.25-0.112-0.25-0.25v-4.5c0-0.138 0.112-0.25 0.25-0.25z" />
        <path
            d="M0.25 9h12.5c0.138 0 0.25 0.112 0.25 0.25v4.5c0 0.138-0.112 0.25-0.25 0.25h-12.5c-0.138 0-0.25-0.112-0.25-0.25v-4.5c0-0.138 0.112-0.25 0.25-0.25z" />
    </symbol>

    <symbol id="expr:v-align-bottom" viewBox="0 0 16 16">
        <path
            d="M0.267 14.978h15.466c0.147 0 0.267 0.12 0.267 0.267v0.488c0 0.147-0.12 0.267-0.267 0.267h-15.466c-0.147 0-0.267-0.12-0.267-0.267v-0.488c0-0.147 0.12-0.267 0.267-0.267z" />
        <path
            d="M9.003 6h4.5c0.138 0 0.25 0.112 0.25 0.25v6.5c0 0.138-0.112 0.25-0.25 0.25h-4.5c-0.138 0-0.25-0.112-0.25-0.25v-6.5c0-0.138 0.112-0.25 0.25-0.25z" />
        <path
            d="M2.003 0h4.5c0.138 0 0.25 0.112 0.25 0.25v12.5c0 0.138-0.112 0.25-0.25 0.25h-4.5c-0.138 0-0.25-0.112-0.25-0.25v-12.5c0-0.138 0.112-0.25 0.25-0.25z" />
    </symbol>

    <symbol id="expr:v-align-center-01" viewBox="0 0 16 16">
        <path
            d="M0 7.768c0-0 0-0.001 0-0.001 0-0.147 0.119-0.266 0.266-0.267h1.734v-5.75c0.001-0.138 0.112-0.249 0.25-0.25h4.5c0.138 0 0.25 0.112 0.25 0.25v0 5.75h2v-2.749c0-0 0-0.001 0-0.001 0-0.138 0.111-0.249 0.249-0.25h4.501c0.138 0 0.25 0.112 0.25 0.25v0 2.75h1.733c0 0 0 0 0 0 0.147 0 0.267 0.12 0.267 0.267 0 0 0 0 0 0v0 0.488c0 0 0 0 0 0 0 0.147-0.12 0.267-0.267 0.267-0 0-0 0-0 0h-1.733v2.729c-0.001 0.138-0.112 0.249-0.25 0.25h-4.5c-0.138 0-0.25-0.112-0.25-0.25v0-2.729h-2v5.728c0 0.138-0.112 0.25-0.25 0.25v0h-4.5c-0.138 0-0.25-0.112-0.25-0.25v0-5.728h-1.733c-0 0-0 0-0 0-0.147 0-0.267-0.12-0.267-0.267 0-0 0-0 0-0v0z" />
    </symbol>

    <symbol id="expr:v-align-top" viewBox="0 0 16 16">
        <path
            d="M0.267 0h15.466c0.147 0 0.267 0.12 0.267 0.267v0.488c0 0.147-0.12 0.267-0.267 0.267h-15.466c-0.147 0-0.267-0.12-0.267-0.267v-0.488c0-0.147 0.12-0.267 0.267-0.267z" />
        <path
            d="M9.502 3h4.5c0.138 0 0.25 0.112 0.25 0.25v6.5c0 0.138-0.112 0.25-0.25 0.25h-4.5c-0.138 0-0.25-0.112-0.25-0.25v-6.5c0-0.138 0.112-0.25 0.25-0.25z" />
        <path
            d="M2.502 3h4.5c0.138 0 0.25 0.112 0.25 0.25v12.5c0 0.138-0.112 0.25-0.25 0.25h-4.5c-0.138 0-0.25-0.112-0.25-0.25v-12.5c0-0.138 0.112-0.25 0.25-0.25z" />
    </symbol>

    <symbol id="expr:zoom-tool" viewBox="0 0 16 16">
        <path
            d="M15.853 15.146l-3.5-3.5 0.146-0.146-0.933-0.933c0.893-1.105 1.433-2.526 1.433-4.074 0-3.594-2.913-6.507-6.507-6.507s-6.507 2.913-6.507 6.507c0 3.594 2.913 6.507 6.507 6.507 1.548 0 2.969-0.54 4.086-1.443l-0.012 0.010 0.933 0.933 0.146-0.146 3.5 3.5c0.091 0.090 0.215 0.146 0.353 0.146 0.276 0 0.501-0.224 0.501-0.501 0-0.137-0.055-0.262-0.145-0.352l0 0zM6.5 12c-3.038 0-5.5-2.462-5.5-5.5s2.462-5.5 5.5-5.5c3.038 0 5.5 2.462 5.5 5.5v0c-0.003 3.036-2.464 5.497-5.5 5.5h-0z" />
    </symbol>

    <symbol id="expr:fill-linear-gradient" viewBox="0 0 16 16">
        <path
            d="M15.5,15.47a1.74,1.74,0,0,1-1.25.53H1.75a1.8,1.8,0,0,1-1.24-.51,1.7783,1.7783,0,0,1-.5-1.15A.2763.2763,0,0,1,0,14.25V1.75a.2763.2763,0,0,1,.01-.09A1.6468,1.6468,0,0,1,.53.5,1.725,1.725,0,0,1,1.75,0h12.5a1.8,1.8,0,0,1,1.24.51A1.7389,1.7389,0,0,1,16,1.75v12.5A1.725,1.725,0,0,1,15.5,15.47ZM15,1.75A.751.751,0,0,0,14.25,1H1.75a.7108.7108,0,0,0-.51.21A.734.734,0,0,0,1,1.75v12.5a.751.751,0,0,0,.75.75h12.5a.734.734,0,0,0,.54-.24.7108.7108,0,0,0,.21-.51Z" />
        <rect x="1.0004" y="13" width="14" height="2" fill-opacity="0" />
        <rect x="1.0004" y="11" width="14" height="2" opacity="0.124" />
        <rect x="1.0004" y="9" width="14" height="2" opacity="0.242" />
        <rect x="1.0004" y="7" width="14" height="2" opacity="0.319" />
        <rect x="1.0004" y="5" width="14" height="2" opacity="0.476" />
        <rect x="1.0004" y="3" width="14" height="2" opacity="0.597" />
        <rect x="1.0004" y="1" width="14" height="2" opacity="0.725" />
    </symbol>

    <symbol id="expr:fill-radial-gradient" viewBox="0 0 16 16">
        <rect x="0.5097" y="0.5098" width="14.98" height="14.98" fill-opacity="0" />
        <path
            d="M15.5.53A1.74,1.74,0,0,0,14.25,0H1.75A1.8,1.8,0,0,0,.51.51a1.7778,1.7778,0,0,0-.5,1.15A.2736.2736,0,0,0,0,1.75v12.5a.2736.2736,0,0,0,.01.09A1.6468,1.6468,0,0,0,.53,15.5a1.7248,1.7248,0,0,0,1.22.5h12.5a1.8,1.8,0,0,0,1.24-.51A1.7389,1.7389,0,0,0,16,14.25V1.75A1.7254,1.7254,0,0,0,15.5.53ZM15,14.25a.751.751,0,0,1-.75.75H1.75a.7106.7106,0,0,1-.51-.21A.7336.7336,0,0,1,1,14.25V1.75A.751.751,0,0,1,1.75,1h12.5a.7343.7343,0,0,1,.54.24.7116.7116,0,0,1,.21.51Z" />
        <path d="M8,1.5H8A6.5,6.5,0,0,1,14.5,8h0A6.5,6.5,0,0,1,8,14.5H8A6.5,6.5,0,0,1,1.5,8h0A6.5,6.5,0,0,1,8,1.5Z"
            opacity="0.117" />
        <path
            d="M8,2.583H8A5.4166,5.4166,0,0,1,13.416,8h0A5.4165,5.4165,0,0,1,8,13.416H8A5.4164,5.4164,0,0,1,2.583,8h0A5.4165,5.4165,0,0,1,8,2.583Z"
            opacity="0.242" />
        <rect x="3.667" y="3.667" width="8.667" height="8.667" rx="4.333" opacity="0.321" />
        <path
            d="M8,4.75H8A3.25,3.25,0,0,1,11.25,8h0A3.25,3.25,0,0,1,8,11.25H8A3.25,3.25,0,0,1,4.75,8h0A3.25,3.25,0,0,1,8,4.75Z"
            opacity="0.477" />
        <path
            d="M8,5.833H8A2.1665,2.1665,0,0,1,10.166,8h0A2.1665,2.1665,0,0,1,8,10.166H8A2.1665,2.1665,0,0,1,5.833,8h0A2.1665,2.1665,0,0,1,8,5.833Z"
            opacity="0.6" />
        <rect x="6.917" y="6.917" width="2.167" height="2.167" rx="1.083" />
    </symbol>

    <symbol id="expr:fill-conical-gradient" viewBox="0 0 16 16">
        <path
            d="M15.5.53A1.7119,1.7119,0,0,0,14.25,0H1.75A1.789,1.789,0,0,0,.51.51a1.7618,1.7618,0,0,0-.5,1.15A.2739.2739,0,0,0,0,1.75v12.5a.2733.2733,0,0,0,.01.09A1.6737,1.6737,0,0,0,.53,15.5a1.7146,1.7146,0,0,0,1.22.5h12.5a1.789,1.789,0,0,0,1.24-.51A1.7293,1.7293,0,0,0,16,14.25V1.75A1.7156,1.7156,0,0,0,15.5.53ZM15,14.25a.774.774,0,0,1-.22.53.7493.7493,0,0,1-.53.22H1.75a.7178.7178,0,0,1-.51-.21A.718.718,0,0,1,1,14.25V1.75a.7738.7738,0,0,1,.22-.53A.7489.7489,0,0,1,1.75,1h12.5a.718.718,0,0,1,.54.24.718.718,0,0,1,.21.51Z" />
        <path d="M8.01,0V8H8L1.22,1.22.51.51A1.789,1.789,0,0,1,1.75,0Z" fill-opacity="0" />
        <path d="M15.5.53l-.71.71L8.03,8H8.01V0h6.24A1.7119,1.7119,0,0,1,15.5.53Z" />
        <path d="M8.01,8H8l.01.01Z" />
        <path d="M8.01,8.014,8.0282,8H8.01v.014Z" />
        <path d="M8,8H.01V1.66A1.7618,1.7618,0,0,1,.51.51l.71.71Z" opacity="0.122" />
        <path d="M8.01,8.01v.01L1.24,14.79l-.71.71a1.6737,1.6737,0,0,1-.52-1.16V8H8Z" opacity="0.238" />
        <path d="M16,1.75V8H8.03l6.76-6.76L15.5.53A1.7156,1.7156,0,0,1,16,1.75Z" opacity="0.718" />
        <path d="M16,8v6.25a1.7293,1.7293,0,0,1-.51,1.24l-.71-.71L8.01,8.02V8.01L8.03,8Z" opacity="0.6" />
        <path d="M8.01,8.02V16H1.75a1.7146,1.7146,0,0,1-1.22-.5l.71-.71Z" opacity="0.358" />
        <path d="M15.49,15.49a1.789,1.789,0,0,1-1.24.51H8.01V8.02l6.77,6.76Z" opacity="0.477" />
    </symbol>

    <symbol id="expr:checkbox-unchecked" viewBox="0 0 16 16">
        <path
            d="M13,1H3A2,2,0,0,0,1,3V13a2,2,0,0,0,2,2H13a2,2,0,0,0,2-2V3A2,2,0,0,0,13,1Zm1,12a1.0011,1.0011,0,0,1-1,1H3a1.0011,1.0011,0,0,1-1-1V3A1.0011,1.0011,0,0,1,3,2H13a1.0011,1.0011,0,0,1,1,1Z" />
    </symbol>

    <symbol id="expr:checkbox-checked" viewBox="0 0 16 16">
        <path
            d="M13,1H3A2,2,0,0,0,1,3V13a2,2,0,0,0,2,2H13a2,2,0,0,0,2-2V3A2,2,0,0,0,13,1Zm1,12a1.0011,1.0011,0,0,1-1,1H3a1.0011,1.0011,0,0,1-1-1V3A1.0011,1.0011,0,0,1,3,2H13a1.0011,1.0011,0,0,1,1,1Z" />
        <rect x="3" y="3" width="10" height="10" rx="1" />
    </symbol>

    <symbol id="expr:radio-unchecked" viewBox="0 0 16 16">
        <path d="M8,1a7,7,0,1,0,7,7A7,7,0,0,0,8,1ZM8,14a6,6,0,1,1,6-6A6.0068,6.0068,0,0,1,8,14Z" />
    </symbol>

    <symbol id="expr:radio-checked" viewBox="0 0 16 16">
        <circle cx="8" cy="8" r="5" />
        <path d="M8,1a7,7,0,1,0,7,7A7,7,0,0,0,8,1ZM8,14a6,6,0,1,1,6-6A6.0068,6.0068,0,0,1,8,14Z" />
    </symbol>

    <symbol id="expr:gradient-tool" viewBox="0 0 16 16">
        <rect x="1" y="12.2857" width="14" height="1.7143" fill-opacity="0" />
        <rect x="1" y="10.5714" width="14" height="1.7143" opacity="0.124" style="isolation: isolate" />
        <rect x="1" y="8.8571" width="14" height="1.7143" opacity="0.242" style="isolation: isolate" />
        <rect x="1" y="7.1429" width="14" height="1.7143" opacity="0.319" style="isolation: isolate" />
        <rect x="1" y="5.4286" width="14" height="1.7143" opacity="0.476" style="isolation: isolate" />
        <rect x="1" y="3.7143" width="14" height="1.7143" opacity="0.597" style="isolation: isolate" />
        <rect x="1" y="2" width="14" height="1.7143" opacity="0.725" style="isolation: isolate" />
        <path
            d="M9.5,0h-3V1H1.25A1.25,1.25,0,0,0,0,2.25v11.5A1.25,1.25,0,0,0,1.25,15H6.5v1h3V15h5.25A1.25,1.25,0,0,0,16,13.75V2.25A1.25,1.25,0,0,0,14.75,1H9.5V0Zm-2,2V1h1V2Zm1,11V3h1V2h5.25a.2476.2476,0,0,1,.25.25v11.5a.2476.2476,0,0,1-.25.25H9.5V13ZM1.25,14A.2476.2476,0,0,1,1,13.75V2.25A.2476.2476,0,0,1,1.25,2H6.5V3h1V13h-1v1ZM7.5,15V14h1v1Z" />
    </symbol>

    <symbol id="expr:pan-tool" viewBox="0 0 16 16">
        <path
            d="M14.98,3.3964a1.3888,1.3888,0,0,0-1.6743.8634c-.2947.8084-.7193,2.6764-.8987,3.0735a.1493.1493,0,0,1-.2826-.09c.13-.6662.5038-3.4.7259-4.6216a1.4517,1.4517,0,0,0-2.856-.5229C9.7674,3.3263,9.59,6.0757,9.4448,6.8A.1726.1726,0,0,1,9.1036,6.78c-.0767-.9206-.3653-3.9641-.4773-5.2634a1.45,1.45,0,0,0-2.89.25c.1218,1.4171.5155,4.2864.5992,5.2906a.0822.0822,0,0,1-.1592.0349c-.2284-.6281-.948-2.853-1.3206-3.8737a1.4626,1.4626,0,0,0-2.7551.9827C2.6663,5.8258,3.71,8.7908,4.03,9.7537a.1946.1946,0,0,1-.3384.1806c-.1087-.1378-.58-.9778-.8877-1.3739A1.5659,1.5659,0,1,0,.3767,10.5381a45.7485,45.7485,0,0,0,4.5594,4.7955,2.5231,2.5231,0,0,0,1.7915.4737h4.5813a1.6327,1.6327,0,0,0,1.5193-1.14l3.1-9.4937A1.3892,1.3892,0,0,0,14.98,3.3964Z" />
    </symbol>

    <symbol id="expr:save" viewBox="0 0 16 16">
        <path
            d="M15.707,4.707,11.293.293A1,1,0,0,0,10.586,0H2A2,2,0,0,0,0,2V14a2,2,0,0,0,2,2H14a2,2,0,0,0,2-2V5.414A1,1,0,0,0,15.707,4.707ZM8,12a2.5,2.5,0,1,1,2.5-2.5A2.5,2.5,0,0,1,8,12Zm3-9a1,1,0,0,1-1,1H2A1,1,0,0,1,1,3V2A1,1,0,0,1,2,1h8a1,1,0,0,1,1,1Z" />
    </symbol>

    <symbol id="expr:fit-view" viewBox="0 0 16 16">
        <polygon points="0 4 4 0 0 0 0 4" />
        <polygon points="0 16 4 16 0 12 0 16" />
        <polygon points="12 0 16 4 16 0 12 0" />
        <polygon points="16 16 16 12 12 16 16 16" />
    </symbol>

    <symbol id="expr:anchor-straight" viewBox="0 0 16 16">
        <path
            d="M15.874,14.16,11,8.97V3.5H5V8.97L.14,14.16a.5.5,0,0,0,.017.707l0,0a.5.5,0,0,0,.7-.03L5.872,9.5h4.261l5,5.34a.5.5,0,0,0,.37.16.486.486,0,0,0,.34-.13A.514.514,0,0,0,15.874,14.16ZM6,8.5v-4h4v4Z" />
    </symbol>

    <symbol id="expr:anchor-mirrored" viewBox="0 0 16 16">
        <path
            d="M12.261,7H14.1a1,1,0,1,0,.88-1.448A.981.981,0,0,0,14.166,6H10.983V3.5H4.992V6H1.809A.979.979,0,0,0,1,5.552,1,1,0,1,0,1.879,7H3.744A6.194,6.194,0,0,0,2.137,8.24,9.207,9.207,0,0,0,.01,14.53.516.516,0,0,0,.539,15a.509.509,0,0,0,.469-.53A8.255,8.255,0,0,1,2.876,8.92,5.623,5.623,0,0,1,4.992,7.51V9.5h5.991v-2A5.575,5.575,0,0,1,13.1,8.89a8.33,8.33,0,0,1,1.867,5.58.51.51,0,0,0,.47.53h.029a.49.49,0,0,0,.5-.47,9.243,9.243,0,0,0-2.137-6.32A6.133,6.133,0,0,0,12.261,7ZM9.985,8.5H5.991v-4H9.985Z" />
    </symbol>

    <symbol id="expr:anchor-asymmetric" viewBox="0 0 16 16">
        <path
            d="M15.933,14.249A34.26,34.26,0,0,0,11.5,8.079V7h1.168a.985.985,0,0,0,.833.478A1,1,0,1,0,12.64,6H11.5V3.5h-6V6H1.859A.991.991,0,0,0,1,5.477a1,1,0,0,0,0,2A.982.982,0,0,0,1.83,7h1.9A6.318,6.318,0,0,0,2.15,8.229a9.186,9.186,0,0,0-2.141,6.3.508.508,0,0,0,.53.47.508.508,0,0,0,.47-.53A8.3,8.3,0,0,1,2.878,8.9,5.636,5.636,0,0,1,5.5,7.339V9.5h5.942a36.392,36.392,0,0,1,3.622,5.25.5.5,0,0,0,.43.25.533.533,0,0,0,.25-.06A.507.507,0,0,0,15.933,14.249ZM10.5,8.5h-4v-4h4Z" />
    </symbol>

    <symbol id="expr:anchor-disconnected" viewBox="0 0 16 16">
        <path
            d="M15,12.5a.984.984,0,0,0-.233.047l-.017-.017L11,8.79V3.5H5V6H1.862A.989.989,0,0,0,1,5.478a1,1,0,0,0,0,2A.985.985,0,0,0,1.832,7H3.75A6.231,6.231,0,0,0,2.14,8.24,9.2,9.2,0,0,0,.01,14.53a.489.489,0,0,0,.5.47H.54a.51.51,0,0,0,.47-.53A8.241,8.241,0,0,1,2.88,8.92,5.63,5.63,0,0,1,5,7.51V9.5h5.31l3.729,3.74.01.01a.99.99,0,1,0,1.2-.721A1.008,1.008,0,0,0,15,12.5Zm-9-4v-4h4v4Z" />
        <path d="M8.32,7.01A1.087,1.087,0,0,1,8.5,7H8.31Z" />
    </symbol>

    <symbol id="expr:unknown" viewBox="0 0 16 16">
        <path
            d="M7.868,11.114a.6.6,0,0,0-.477.181.641.641,0,0,0-.162.446.631.631,0,0,0,.162.442.621.621,0,0,0,.477.173.639.639,0,0,0,.481-.173.626.626,0,0,0,.164-.442.638.638,0,0,0-.164-.446A.621.621,0,0,0,7.868,11.114Z" />
        <path
            d="M8.032,3.644A2.522,2.522,0,0,0,6.3,4.227a1.973,1.973,0,0,0-.677,1.532H6.708a1.071,1.071,0,0,1,.363-.85,1.409,1.409,0,0,1,.961-.316,1.221,1.221,0,0,1,.938.347,1.365,1.365,0,0,1,.322.962A1.773,1.773,0,0,1,8.8,7.1l-.768.79a2.806,2.806,0,0,0-.6.895,3.5,3.5,0,0,0-.159,1.1H8.36a1.971,1.971,0,0,1,.428-1.363l.639-.632a2.941,2.941,0,0,0,.949-2.018,2.156,2.156,0,0,0-.618-1.63A2.388,2.388,0,0,0,8.032,3.644Z" />
        <path
            d="M13.5.5H2.5a2,2,0,0,0-2,2v11a2,2,0,0,0,2,2h11a2,2,0,0,0,2-2V2.5A2,2,0,0,0,13.5.5Zm1,13a1,1,0,0,1-1,1H2.5a1,1,0,0,1-1-1V2.5a1,1,0,0,1,1-1h11a1,1,0,0,1,1,1Z" />
    </symbol>

    <symbol id="expr:polygon" viewBox="0 0 16 16">
        <path
            d="M11.173,2.505,14.345,8,11.173,13.5H4.827L1.655,8,4.827,2.505h6.346m.577-1H4.25L.5,8,4.25,14.5h7.5L15.5,8,11.75,1.505Z" />
    </symbol>

    <symbol id="expr:ellipse" viewBox="0 0 16 16">
        <path
            d="M8,2.5c3.584,0,6.5,2.467,6.5,5.5S11.584,13.5,8,13.5,1.5,11.033,1.5,8,4.416,2.5,8,2.5m0-1C3.858,1.5.5,4.41.5,8S3.858,14.5,8,14.5s7.5-2.91,7.5-6.5S12.142,1.5,8,1.5Z" />
    </symbol>

    <symbol id="expr:clip-path" viewBox="0 0 16 16">
        <path d="M11.01,11V.5H.5V11H11.01Zm-9.5-1H1.5V1.5H10v3A5.478,5.478,0,0,0,4.51,10Z" />
        <path d="M10.2,14.5l.04,1a5.62,5.62,0,0,0,1.09-.16l-.24-.97A5.305,5.305,0,0,1,10.2,14.5Z" />
        <path d="M8.09,15.15a4.875,4.875,0,0,0,1.06.28l.15-.98a5.2,5.2,0,0,1-.86-.23Z" />
        <path d="M11.94,14.07l.43.9a5.683,5.683,0,0,0,.94-.56l-.6-.8A4.61,4.61,0,0,1,11.94,14.07Z" />
        <path d="M6.23,14a6.29,6.29,0,0,0,.87.67l.53-.85a4.654,4.654,0,0,1-.71-.55Z" />
        <path d="M13.37,13l.75.66a5.156,5.156,0,0,0,.64-.89l-.86-.5A4.253,4.253,0,0,1,13.37,13Z" />
        <path d="M5.89,11.81l-.91.4a4.908,4.908,0,0,0,.53.95l.82-.57A5.018,5.018,0,0,1,5.89,11.81Z" />
        <path d="M14.27,11.46l.95.32a5.727,5.727,0,0,0,.25-1.07l-1-.13A4.482,4.482,0,0,1,14.27,11.46Z" />
        <path d="M14.5,9.68l1-.07a5.549,5.549,0,0,0-.19-1.08l-.96.26A4.475,4.475,0,0,1,14.5,9.68Z" />
        <path d="M14.02,7.96l.89-.46a5.314,5.314,0,0,0-.59-.92l-.78.62A4.244,4.244,0,0,1,14.02,7.96Z" />
        <path d="M13.56,5.79a6.343,6.343,0,0,0-.91-.62l-.48.88a4.065,4.065,0,0,1,.74.51Z" />
    </symbol>

    <symbol id="expr:symbol" viewBox="0 0 16 16">
        <path
            d="M4.25,1h0A3.25,3.25,0,0,1,7.5,4.25V7.5a0,0,0,0,1,0,0H4.25A3.25,3.25,0,0,1,1,4.25v0A3.25,3.25,0,0,1,4.25,1Z" />
        <path
            d="M11.75,1H15a0,0,0,0,1,0,0V4.25A3.25,3.25,0,0,1,11.75,7.5h0A3.25,3.25,0,0,1,8.5,4.25v0A3.25,3.25,0,0,1,11.75,1Z"
            transform="translate(23.5 8.5) rotate(180)" />
        <path
            d="M4.25,8.5H7.5a0,0,0,0,1,0,0v3.25A3.25,3.25,0,0,1,4.25,15h0A3.25,3.25,0,0,1,1,11.75v0A3.25,3.25,0,0,1,4.25,8.5Z" />
        <path
            d="M11.75,8.5h0A3.25,3.25,0,0,1,15,11.75V15a0,0,0,0,1,0,0H11.75A3.25,3.25,0,0,1,8.5,11.75v0A3.25,3.25,0,0,1,11.75,8.5Z"
            transform="translate(23.5 23.5) rotate(180)" />
    </symbol>

    <symbol id="expr:center-origin-object" viewBox="0 0 16 16">
        <polygon points="1 1 4 1 4 0 0 0 0 4 1 4 1 1" />
        <polygon points="1 12 0 12 0 16 4 16 4 15 1 15 1 12" />
        <polygon points="15 0 12 0 12 1 15 1 15 4 16 4 16 0 15 0" />
        <polygon points="15 15 12 15 12 16 16 16 16 12 15 12 15 15" />
        <circle cx="8.015" cy="8" r="1" />
        <path
            d="M10.949,8.5H12.5v-1H10.949A2.99,2.99,0,0,0,8.5,5.05V3.5h-1V5.05A2.992,2.992,0,0,0,5.05,7.5H3.5v1H5.05A2.992,2.992,0,0,0,7.5,10.95V12.5h1V10.95A2.99,2.99,0,0,0,10.949,8.5ZM8,10a2,2,0,1,1,2-2A2,2,0,0,1,8,10Z" />
    </symbol>

    <symbol id="expr:center-object-origin" viewBox="0 0 16 16">
        <path d="M3,3H0V4H4V0H3Z" />
        <path d="M3,16H4V12H0v1H3Z" />
        <path d="M13,4h3V3H13V0H12V4Z" />
        <path d="M13,13h3V12H12v4h1Z" />
        <circle cx="8.014" cy="8" r="1" />
        <path d="M8,11a3,3,0,1,1,3-3A3,3,0,0,1,8,11ZM8,6a2,2,0,1,0,2,2A2,2,0,0,0,8,6Z" />
    </symbol>

</svg>