<svg xmlns="http://www.w3.org/2000/svg" style="height: 0; width: 0; position: absolute; visibility: hidden;">
    <symbol id="FolderOpen" viewBox="0 0 18 18">
        <path d="M15,7V4.5a.5.5,0,0,0-.5-.5l-6.166.004-1.65-1.7A1,1,0,0,0,5.9645,2H2A1,1,0,0,0,1,3V14.5a.5.5,0,0,0,.5.5H14.6535a.5.5,0,0,0,.468-.3245l2.625-7A.5.5,0,0,0,17.2785,7ZM2,3H5.9645L7.617,4.7l.295.3035h.4225L14,5V7H4.3465a.5.5,0,0,0-.468.3245L2,12.3335Z"/>
    </symbol>
    <symbol id="SaveFloppy" viewBox="0 0 18 18">
        <path d="M15.854,4.1465s-2.0075-2-2.073-2.057A.48449.48449,0,0,0,13.5,2H13V6H7V2H2.5a.5.5,0,0,0-.5.5v13a.5.5,0,0,0,.5.5h13a.5.5,0,0,0,.5-.5V4.5A.5.5,0,0,0,15.854,4.1465ZM13,15H5V8h8Z"/>
    </symbol>
    <symbol id="Undo" viewBox="0 0 18 18">
        <path d="M15.3315,6.271A5.19551,5.19551,0,0,0,11.8355,5H5.5V2.4A.4.4,0,0,0,5.1,2a.39352.39352,0,0,0-.2635.1L1.072,5.8245a.25.25,0,0,0,0,.35L4.834,9.9a.39352.39352,0,0,0,.2635.1.4.4,0,0,0,.4-.4V7h6.441A3.06949,3.06949,0,0,1,15.05,9.9a2.9445,2.9445,0,0,1-2.78274,3.09783Q12.13375,13.005,12,13H8.5a.5.5,0,0,0-.5.5v1a.5.5,0,0,0,.5.5h3.263a5.16751,5.16751,0,0,0,5.213-4.5065A4.97351,4.97351,0,0,0,15.3315,6.271Z"/>
    </symbol>
    <symbol id="Redo" viewBox="0 0 18 18">
        <path d="M2.6685,6.271A5.19551,5.19551,0,0,1,6.1645,5H12.5V2.4a.4.4,0,0,1,.4-.4.39352.39352,0,0,1,.2635.1l3.762,3.7225a.25.25,0,0,1,0,.35L13.166,9.9a.39352.39352,0,0,1-.2635.1.4.4,0,0,1-.4-.4V7H6.0615A3.06949,3.06949,0,0,0,2.95,9.9a2.9445,2.9445,0,0,0,2.78274,3.09783Q5.86626,13.005,6,13H9.5a.5.5,0,0,1,.5.5v1a.5.5,0,0,1-.5.5H6.237a5.16751,5.16751,0,0,1-5.213-4.5065A4.97349,4.97349,0,0,1,2.6685,6.271Z"/>
    </symbol>
    <symbol id="AlignLeft" viewBox="0 0 18 18">
        <rect class="a" height="18" rx="0.25" width="1" x="1" />
        <rect class="a" height="5" rx="0.5" width="13" x="3" y="10" />
        <rect class="a" height="5" rx="0.5" width="8" x="3" y="3" />
    </symbol>
    <symbol id="AlignCenter" viewBox="0 0 18 18">
        <path class="a" d="M14.5,10H9V8h3.5a.5.5,0,0,0,.5-.5v-4a.5.5,0,0,0-.5-.5H9V.25A.25.25,0,0,0,8.75,0h-.5A.25.25,0,0,0,8,.25V3H4.5a.5.5,0,0,0-.5.5v4a.5.5,0,0,0,.5.5H8v2H2.5a.5.5,0,0,0-.5.5v4a.5.5,0,0,0,.5.5H8v2.75a.25.25,0,0,0,.25.25h.5A.25.25,0,0,0,9,17.75V15h5.5a.5.5,0,0,0,.5-.5v-4A.5.5,0,0,0,14.5,10Z" />
    </symbol>
    <symbol id="AlignRight" viewBox="0 0 18 18">
        <rect class="a" height="18" rx="0.25" width="1" x="16" />
        <rect class="a" height="5" rx="0.5" width="13" x="2" y="10" />
        <rect class="a" height="5" rx="0.5" width="8" x="7" y="3" />
    </symbol>
    <symbol id="AlignTop" viewBox="0 0 18 18">
        <rect class="a" height="1" rx="0.25" width="18" y="1" />
        <rect class="a" height="13" rx="0.5" width="5" x="3" y="3" />
        <rect class="a" height="8" rx="0.5" width="5" x="10" y="3" />
    </symbol>
    <symbol id="AlignMiddle" viewBox="0 0 18 18">
        <path class="a" d="M17.75,8H15V4.5a.5.5,0,0,0-.5-.5h-4a.5.5,0,0,0-.5.5V8H8V2.5A.5.5,0,0,0,7.5,2h-4a.5.5,0,0,0-.5.5V8H.25A.25.25,0,0,0,0,8.25v.5A.25.25,0,0,0,.25,9H3v5.5a.5.5,0,0,0,.5.5h4a.5.5,0,0,0,.5-.5V9h2v3.5a.5.5,0,0,0,.5.5h4a.5.5,0,0,0,.5-.5V9h2.75A.25.25,0,0,0,18,8.75v-.5A.25.25,0,0,0,17.75,8Z" />
    </symbol>
    <symbol id="AlignBottom" viewBox="0 0 18 18">
        <rect class="a" height="13" rx="0.5" width="5" x="3" y="2" />
        <rect class="a" height="8" rx="0.5" width="5" x="10" y="7" />
        <rect class="a" height="1" rx="0.25" width="18" y="16" />
    </symbol>
    <symbol id="DistributeHorizontally" viewBox="0 0 18 18">
        <rect class="a" height="12" rx="0.5" width="6" x="6" y="3" />
        <rect class="a" height="18" rx="0.25" width="1" x="2" />
        <rect class="a" height="18" rx="0.25" width="1" x="15" />
    </symbol>
    <symbol id="DistributeVertically" viewBox="0 0 18 18">
        <rect class="a" height="6" rx="0.5" width="12" x="3" y="6" />
        <rect class="a" height="1" rx="0.25" width="18" y="15" />
        <rect class="a" height="1" rx="0.25" width="18" y="2" />
    </symbol>
    <symbol id="ChevronRight" viewBox="0 0 18 18">
        <path class="a" d="M12,9a.994.994,0,0,1-.2925.7045l-3.9915,3.99a1,1,0,1,1-1.4355-1.386l.0245-.0245L9.5905,9,6.3045,5.715A1,1,0,0,1,7.691,4.28l.0245.0245,3.9915,3.99A.994.994,0,0,1,12,9Z" />
    </symbol>
    <symbol id="Refresh" viewBox="0 0 18 18">
        <path class="a" d="M16.337,10H15.39a.6075.6075,0,0,0-.581.469A5.7235,5.7235,0,0,1,5.25,13.006l-.346-.3465L6.8815,10.682A.392.392,0,0,0,7,10.4a.4.4,0,0,0-.377-.4H1.25a.25.25,0,0,0-.25.25v5.375A.4.4,0,0,0,1.4,16a.3905.3905,0,0,0,.28-.118l1.8085-1.8085.178.1785a8.09048,8.09048,0,0,0,3.642,2.1655,7.715,7.715,0,0,0,9.4379-5.47434q.04733-.178.0861-.35816A.5.5,0,0,0,16.337,10Z" />
        <path class="a" d="M16.6,2a.3905.3905,0,0,0-.28.118L14.5095,3.9265l-.178-.1765a8.09048,8.09048,0,0,0-3.642-2.1655A7.715,7.715,0,0,0,1.25269,7.06072q-.04677.17612-.08519.35428A.5.5,0,0,0,1.663,8H2.61a.6075.6075,0,0,0,.581-.469A5.7235,5.7235,0,0,1,12.75,4.994l.346.3465L11.1185,7.318A.392.392,0,0,0,11,7.6a.4.4,0,0,0,.377.4H16.75A.25.25,0,0,0,17,7.75V2.377A.4.4,0,0,0,16.6,2Z" />
    </symbol>

    <symbol id="LockClosed" viewBox="0 0 18 18">
        <path class="a" d="M14.5,8H14V7A5,5,0,0,0,4,7V8H3.5a.5.5,0,0,0-.5.5v8a.5.5,0,0,0,.5.5h11a.5.5,0,0,0,.5-.5v-8A.5.5,0,0,0,14.5,8ZM6,7a3,3,0,0,1,6,0V8H6Zm4,6.111V14.5a.5.5,0,0,1-.5.5h-1a.5.5,0,0,1-.5-.5V13.111a1.5,1.5,0,1,1,2,0Z" />
    </symbol>

    <symbol id="LockOpen" viewBox="0 0 18 18">
        <path class="a" d="M14.5,8H5.95V5.1765A3.1065,3.1065,0,0,1,8.9852,2.0003L9,2a3.0715,3.0715,0,0,1,2.754,1.7095c.155.3195.133.573.3885.573a.2541.2541,0,0,0,.093-.018L13.576,3.73a.25649.25649,0,0,0,.161-.2355A4.96,4.96,0,0,0,9,.05,5.16306,5.16306,0,0,0,4,5.146V8H3.5a.5.5,0,0,0-.5.5v8a.5.5,0,0,0,.5.5h11a.5.5,0,0,0,.5-.5v-8A.5.5,0,0,0,14.5,8ZM10,13.111V14.5a.5.5,0,0,1-.5.5h-1a.5.5,0,0,1-.5-.5V13.111a1.5,1.5,0,1,1,2,0Z" />
    </symbol>

    <symbol id="Visibility" viewBox="0 0 18 18">
        <path class="a" d="M12.3065,4.29A7.48591,7.48591,0,0,0,9,3.4685c-4.332,0-7.875,4.3125-7.875,5.7115,0,1.5,3.729,5.35,7.843,5.35,4.15,0,7.907-3.853,7.907-5.35C16.875,8,14.768,5.5095,12.3065,4.29ZM9,13.6125A4.6125,4.6125,0,1,1,13.6125,9,4.6125,4.6125,0,0,1,9,13.6125Z" />
        <path class="a" d="M10.3335,9.0415A1.3335,1.3335,0,0,1,9,7.7085a1.316,1.316,0,0,1,.675-1.135A2.46964,2.46964,0,0,0,9,6.469a2.5315,2.5315,0,1,0,2.5315,2.5315V9a2.35682,2.35682,0,0,0-.0875-.6A1.3125,1.3125,0,0,1,10.3335,9.0415Z" />
    </symbol>

    <symbol id="VisibilityOff" viewBox="0 0 18 18">
        <path class="a" d="M7.2865,4.72A4.6075,4.6075,0,0,1,13.28,10.7135l1.4725,1.4725C16.05,11.0915,16.875,9.88,16.875,9.18c0-1.182-2.107-3.6705-4.5685-4.89A7.48591,7.48591,0,0,0,9,3.4685a7.18,7.18,0,0,0-2.4945.4705Z" />
        <path class="a" d="M16.897,16.029l-5.733-5.733A2.511,2.511,0,0,0,11.531,9a2.35608,2.35608,0,0,0-.087-.6,1.31249,1.31249,0,0,1-1.1105.639A1.3335,1.3335,0,0,1,9,7.7085a1.316,1.316,0,0,1,.675-1.135A2.47276,2.47276,0,0,0,9,6.469a2.511,2.511,0,0,0-1.296.367L1.971,1.103a.40949.40949,0,0,0-.5785,0l-.289.2895a.4085.4085,0,0,0-.00079.57771L1.1035,1.971l3.173,3.173c-1.908,1.37-3.15,3.209-3.15,4.036,0,1.5,3.729,5.35,7.843,5.35a8.2275,8.2275,0,0,0,3.722-.974l3.3395,3.3395a.40851.40851,0,0,0,.57771.0008l.00079-.0008.289-.289A.409.409,0,0,0,16.897,16.029ZM9,13.6125A4.6,4.6,0,0,1,5.3395,6.207l1.497,1.497A2.50409,2.50409,0,0,0,6.469,9a2.531,2.531,0,0,0,2.5305,2.5315H9a2.50447,2.50447,0,0,0,1.296-.368l1.497,1.497A4.572,4.572,0,0,1,9,13.6125Z" />
    </symbol>

    <symbol id="AddToSelection" viewBox="0 0 18 18">
        <path class="a" d="M12.08,2.7215l.514-.8885a7.97354,7.97354,0,0,0-2.7-.803V2.063A6.94168,6.94168,0,0,1,12.08,2.7215Z" />
        <path class="a" d="M14.765,5.033l.9-.5175a8.06649,8.06649,0,0,0-1.926-1.985l-.519.894A7.03319,7.03319,0,0,1,14.765,5.033Z" />
        <path class="a" d="M15.9665,8.3315H17a7.95519,7.95519,0,0,0-.6895-2.6455L15.415,6.2A6.95,6.95,0,0,1,15.9665,8.3315Z" />
        <path class="a" d="M15.9665,9.6685a6.95,6.95,0,0,1-.55,2.129l.8955.516A7.95513,7.95513,0,0,0,17,9.6685Z" />
        <path class="a" d="M13.22,14.5755l.5165.894a8.06544,8.06544,0,0,0,1.926-1.985l-.9-.5175A7.033,7.033,0,0,1,13.22,14.5755Z" />
        <path class="a" d="M9.8925,15.937V16.97a7.97354,7.97354,0,0,0,2.7-.803l-.5125-.8885A6.94146,6.94146,0,0,1,9.8925,15.937Z" />
        <path class="a" d="M6.269,15.447l-.514.8885A7.99637,7.99637,0,0,0,8.5535,17V15.9775A6.96845,6.96845,0,0,1,6.269,15.447Z" />
        <path class="a" d="M3.3695,13.1465l-.9.5175a8.06609,8.06609,0,0,0,2.107,2.031l.513-.8875A7.03548,7.03548,0,0,1,3.3695,13.1465Z" />
        <path class="a" d="M2.0335,9.6685H1a7.94984,7.94984,0,0,0,.787,2.847L2.6825,12A6.94449,6.94449,0,0,1,2.0335,9.6685Z" />
        <path class="a" d="M2.6825,6,1.787,5.4845A7.94984,7.94984,0,0,0,1,8.3315H2.0335A6.94449,6.94449,0,0,1,2.6825,6Z" />
        <path class="a" d="M5.092,3.192l-.513-.8875a8.06609,8.06609,0,0,0-2.107,2.031l.9.5175A7.03639,7.03639,0,0,1,5.092,3.192Z" />
        <path class="a" d="M8.5535,2.0225V1a7.99514,7.99514,0,0,0-2.8.6645l.5135.8885A6.96854,6.96854,0,0,1,8.5535,2.0225Z" />
        <path class="a" d="M14,9.5a.5.5,0,0,1-.5.5H10v3.5a.5.5,0,0,1-.5.5h-1a.5.5,0,0,1-.5-.5V10H4.5A.5.5,0,0,1,4,9.5v-1A.5.5,0,0,1,4.5,8H8V4.5A.5.5,0,0,1,8.5,4h1a.5.5,0,0,1,.5.5V8h3.5a.5.5,0,0,1,.5.5Z" />
    </symbol>
    <symbol id="AddCircle" viewBox="0 0 18 18">
        <path class="a" d="M9,1a8,8,0,1,0,8,8A8,8,0,0,0,9,1Zm5,8.5a.5.5,0,0,1-.5.5H10v3.5a.5.5,0,0,1-.5.5h-1a.5.5,0,0,1-.5-.5V10H4.5A.5.5,0,0,1,4,9.5v-1A.5.5,0,0,1,4.5,8H8V4.5A.5.5,0,0,1,8.5,4h1a.5.5,0,0,1,.5.5V8h3.5a.5.5,0,0,1,.5.5Z" />
    </symbol>
    <symbol id="Filter" viewBox="0 0 18 18">
        <path class="a" d="M15.473,1H1.527a.5.5,0,0,0-.3935.8085L7,9.2945V16.95a.496.496,0,0,0,.84.412l1.9905-2.0765A.60949.60949,0,0,0,10,14.864V9.2945l5.8665-7.486A.5.5,0,0,0,15.473,1Z" />
    </symbol>

<!--
    <symbol id="" viewBox="0 0 18 18">
    </symbol>
-->
</svg>